<?xml version="1.0" encoding="UTF-8" standalone="no"?>
<svg width="283.464567pt" height="283.464567pt" viewBox="0 -283.464567 283.464567 283.464567" xmlns="http://www.w3.org/2000/svg">
<g transform="scale(1, -1)">
<path d="M 28.3465 269.291 C 54.4535 269.291, 77.9244 250.396, 113.386 212.598 " fill="none" stroke-width="1" stroke="#000000" />
<path d="M 164.409 212.598 C 199.871 250.396, 223.342 269.291, 249.449 269.291 " fill="none" stroke-width="1" stroke="#000000" />
<path d="M 28.3465 198.425 C 59.3858 198.425, 82.3465 141.732, 113.386 141.732 " fill="none" stroke-width="1" stroke="#000000" />
<path d="M 164.409 141.732 C 199.276 217.417, 214.583 217.417, 249.449 141.732 " fill="none" stroke-width="1" stroke="#000000" />
<path d="M 28.3465 127.559 C 43.8661 127.559, 55.3465 70.8661, 70.8661 70.8661 C 86.3858 70.8661, 97.8661 127.559, 113.386 127.559 " fill="none" stroke-width="1" stroke="#000000" />
<path d="M 164.409 99.2126 C 181.843 137.055, 189.496 137.055, 206.929 99.2126 C 224.362 61.3701, 232.016 61.3701, 249.449 99.2126 " fill="none" stroke-width="1" stroke="#000000" />
<g>
<path d="M 166.11 212.598 A 1.70079 1.13386 0 1 1 162.709 212.598 A 1.70079 1.13386 0 1 1 166.11 212.598 " fill="none" stroke-width="1" stroke="#FF0000" />
<path d="M 179.41 226.392 A 1.70079 1.13386 0 1 1 176.009 226.392 A 1.70079 1.13386 0 1 1 179.41 226.392 " fill="none" stroke-width="1" stroke="#FF0000" />
<path d="M 192.387 239.051 A 1.70079 1.13386 0 1 1 188.986 239.051 A 1.70079 1.13386 0 1 1 192.387 239.051 " fill="none" stroke-width="1" stroke="#FF0000" />
<path d="M 204.718 249.687 A 1.70079 1.13386 0 1 1 201.317 249.687 A 1.70079 1.13386 0 1 1 204.718 249.687 " fill="none" stroke-width="1" stroke="#FF0000" />
<path d="M 216.096 257.817 A 1.70079 1.13386 0 1 1 212.695 257.817 A 1.70079 1.13386 0 1 1 216.096 257.817 " fill="none" stroke-width="1" stroke="#FF0000" />
<path d="M 226.242 263.395 A 1.70079 1.13386 0 1 1 222.84 263.395 A 1.70079 1.13386 0 1 1 226.242 263.395 " fill="none" stroke-width="1" stroke="#FF0000" />
<path d="M 234.907 266.757 A 1.70079 1.13386 0 1 1 231.506 266.757 A 1.70079 1.13386 0 1 1 234.907 266.757 " fill="none" stroke-width="1" stroke="#FF0000" />
<path d="M 241.88 268.464 A 1.70079 1.13386 0 1 1 238.479 268.464 A 1.70079 1.13386 0 1 1 241.88 268.464 " fill="none" stroke-width="1" stroke="#FF0000" />
<path d="M 246.991 269.121 A 1.70079 1.13386 0 1 1 243.59 269.121 A 1.70079 1.13386 0 1 1 246.991 269.121 " fill="none" stroke-width="1" stroke="#FF0000" />
<path d="M 250.104 269.28 A 1.70079 1.13386 0 1 1 246.702 269.28 A 1.70079 1.13386 0 1 1 250.104 269.28 " fill="none" stroke-width="1" stroke="#FF0000" />
<path d="M 251.15 269.291 A 1.70079 1.13386 0 1 1 247.748 269.291 A 1.70079 1.13386 0 1 1 251.15 269.291 " fill="none" stroke-width="1" stroke="#FF0000" />
</g>
<path d="M 28.3465 28.3465 C 39.9685 62.4047, 45.0709 62.4047, 56.6929 28.3465 C 68.315 -5.71181, 73.4173 -5.71181, 85.0394 28.3465 C 96.6614 62.4047, 101.764 62.4047, 113.386 28.3465 C 125.008 -5.71181, 130.11 -5.71181, 141.732 28.3465 C 153.354 62.4047, 158.457 62.4047, 170.079 28.3465 C 181.701 -5.71181, 186.803 -5.71181, 198.425 28.3465 C 210.047 62.4047, 215.15 62.4047, 226.772 28.3465 " fill="none" stroke-width="1" stroke="#FF0000" />
<text x="70.866142" y="-273.543307" transform="scale(1, -1)" text-anchor="start" fill="#000000" font-size="10.000000" font-family="'Times New Roman', Times, 'Liberation Serif', 'Nimbus Roman', serif" font-style="normal" font-weight="bold">Bezier approximation to sine curves</text>
<text x="99.212598" y="-59.527559" transform="scale(1, -1)" text-anchor="start" fill="#000000" font-size="10.000000" font-family="'Times New Roman', Times, 'Liberation Serif', 'Nimbus Roman', serif" font-style="normal" font-weight="normal">Concatenated curve</text>
<text x="17.007874" y="-226.771654" transform="scale(1, -1)" text-anchor="start" fill="#000000" font-size="10.000000" font-family="'Times New Roman', Times, 'Liberation Serif', 'Nimbus Roman', serif" font-style="italic" font-weight="normal">Cosine </text>
<text x="47.287874" y="-226.771654" transform="scale(1, -1)" text-anchor="start" fill="#000000" font-size="10.000000" font-family="'Times New Roman', Times, 'Liberation Serif', 'Nimbus Roman', serif" font-style="italic" font-weight="normal">π</text>
<text x="52.987874" y="-226.771654" transform="scale(1, -1)" text-anchor="start" fill="#000000" font-size="10.000000" font-family="'Times New Roman', Times, 'Liberation Serif', 'Nimbus Roman', serif" font-style="italic" font-weight="normal">/2</text>
<text x="226.771654" y="-226.771654" transform="scale(1, -1)" text-anchor="start" fill="#000000" font-size="10.000000" font-family="'Times New Roman', Times, 'Liberation Serif', 'Nimbus Roman', serif" font-style="italic" font-weight="normal">Sine </text>
<text x="246.491654" y="-226.771654" transform="scale(1, -1)" text-anchor="start" fill="#000000" font-size="10.000000" font-family="'Times New Roman', Times, 'Liberation Serif', 'Nimbus Roman', serif" font-style="italic" font-weight="normal">π</text>
<text x="252.191654" y="-226.771654" transform="scale(1, -1)" text-anchor="start" fill="#000000" font-size="10.000000" font-family="'Times New Roman', Times, 'Liberation Serif', 'Nimbus Roman', serif" font-style="italic" font-weight="normal">/2</text>
<text x="17.007874" y="-170.078740" transform="scale(1, -1)" text-anchor="start" fill="#000000" font-size="10.000000" font-family="'Times New Roman', Times, 'Liberation Serif', 'Nimbus Roman', serif" font-style="italic" font-weight="normal">Cosine </text>
<text x="47.287874" y="-170.078740" transform="scale(1, -1)" text-anchor="start" fill="#000000" font-size="10.000000" font-family="'Times New Roman', Times, 'Liberation Serif', 'Nimbus Roman', serif" font-style="italic" font-weight="normal">π</text>
<text x="240.944882" y="-170.078740" transform="scale(1, -1)" text-anchor="start" fill="#000000" font-size="10.000000" font-family="'Times New Roman', Times, 'Liberation Serif', 'Nimbus Roman', serif" font-style="italic" font-weight="normal">Sine </text>
<text x="260.664882" y="-170.078740" transform="scale(1, -1)" text-anchor="start" fill="#000000" font-size="10.000000" font-family="'Times New Roman', Times, 'Liberation Serif', 'Nimbus Roman', serif" font-style="italic" font-weight="normal">π</text>
<text x="226.771654" y="-113.385827" transform="scale(1, -1)" text-anchor="start" fill="#000000" font-size="10.000000" font-family="'Times New Roman', Times, 'Liberation Serif', 'Nimbus Roman', serif" font-style="italic" font-weight="normal">Sine 2</text>
<text x="251.491654" y="-113.385827" transform="scale(1, -1)" text-anchor="start" fill="#000000" font-size="10.000000" font-family="'Times New Roman', Times, 'Liberation Serif', 'Nimbus Roman', serif" font-style="italic" font-weight="normal">π</text>
<text x="51.023622" y="-113.385827" transform="scale(1, -1)" text-anchor="start" fill="#000000" font-size="10.000000" font-family="'Times New Roman', Times, 'Liberation Serif', 'Nimbus Roman', serif" font-style="italic" font-weight="normal">Cosine 2</text>
<text x="86.303622" y="-113.385827" transform="scale(1, -1)" text-anchor="start" fill="#000000" font-size="10.000000" font-family="'Times New Roman', Times, 'Liberation Serif', 'Nimbus Roman', serif" font-style="italic" font-weight="normal">π</text>
</g>
</svg>
