<?xml version="1.0" encoding="UTF-8" standalone="no"?>
<svg width="85.039370pt" height="85.039370pt" viewBox="0 -85.039370 85.039370 85.039370" xmlns="http://www.w3.org/2000/svg">
<g transform="scale(1, -1)">
<g>
<path d="M 8.31133 41.0522 L 66.3161 65.0777 L 43.7581 10.6175 L 21.2001 65.0777 L 75.6603 42.5197 L 21.2001 19.9617 L 43.7581 68.0414 " fill="none" stroke-width="0.5" stroke="#000000" />
<path d="M 8.31133 41.0522 L 14.0891 43.4767 " fill="none" stroke-width="0.5" stroke="#000000" />
<g>
<path d="M 14.0891 43.4767 L 12.8137 43.2183 L 11.4889 43.0775 L 10.0653 43.1721 L 11.7358 42.4892 L 11.0529 40.8187 L 11.9826 41.9009 L 13.0112 42.7476 L 14.0891 43.4767 " fill="none" stroke-width="0.5" stroke="#000000" />
</g>
<path d="M 21.2001 19.9617 L 43.7581 68.0414 " fill="none" stroke-width="0.5" stroke="#000000" />
<g>
<path d="M 43.7581 68.0414 L 42.9851 66.9946 L 42.0965 66.0019 L 40.9768 65.1177 L 42.6741 65.7309 L 43.2873 64.0336 L 43.2517 65.4599 L 43.4472 66.7777 L 43.7581 68.0414 " fill="none" stroke-width="0.5" stroke="#000000" />
</g>
<defs><pattern id="mgpat_8_000000" patternUnits="userSpaceOnUse" width="2.000000" height="2.000000" patternTransform="rotate(45.000000)"><line x1="0" y1="0" x2="2.000000" y2="0" stroke="#000000" stroke-width="0.400000"/></pattern></defs>
<path d="M 11.856 48.0579 L 11.856 74.9004 L 76.1388 74.9004 L 76.1388 10.139 L 11.856 10.139 L 11.856 36.9815 L 12.3406 36.9799 A 31.9021 31.9021 0 1 1 12.3406 48.0594 " fill="url(#mgpat_8_000000)" stroke-width="0.4" stroke="#000000" />
</g>
</g>
</svg>
