<?xml version="1.0" encoding="UTF-8" standalone="no"?>
<svg width="340.157480pt" height="226.771654pt" viewBox="0 -226.771654 340.157480 226.771654" xmlns="http://www.w3.org/2000/svg">
<g transform="scale(1, -1)">
<path d="M 28.3465 28.3465 L 49.8898 28.3465 " fill="none" stroke-width="0.8" stroke="#000000" stroke-dasharray="4,2" />
<path d="M 49.8898 28.3465 C 103.754 29.0466, 79.0271 172.159, 311.27 182.928 " fill="none" stroke-width="0.8" stroke="#000000" stroke-dasharray="4,2" />
<path d="M 76.5666 49.011 A 2.83465 2.83465 0 1 1 70.8973 49.011 A 2.83465 2.83465 0 1 1 76.5666 49.011 " fill="none" stroke-width="0.4" stroke="#000000" />
<path d="M 86.2328 60.6898 A 2.83465 2.83465 0 1 1 80.5635 60.6898 A 2.83465 2.83465 0 1 1 86.2328 60.6898 " fill="none" stroke-width="0.4" stroke="#000000" />
<path d="M 90.7313 66.9657 A 2.83465 2.83465 0 1 1 85.062 66.9657 A 2.83465 2.83465 0 1 1 90.7313 66.9657 " fill="none" stroke-width="0.4" stroke="#000000" />
<path d="M 95.6778 72.6746 A 2.83465 2.83465 0 1 1 90.0085 72.6746 A 2.83465 2.83465 0 1 1 95.6778 72.6746 " fill="none" stroke-width="0.4" stroke="#000000" />
<path d="M 100.261 79.6224 A 2.83465 2.83465 0 1 1 94.5921 79.6224 A 2.83465 2.83465 0 1 1 100.261 79.6224 " fill="none" stroke-width="0.4" stroke="#000000" />
<path d="M 106.197 87.8287 A 2.83465 2.83465 0 1 1 100.528 87.8287 A 2.83465 2.83465 0 1 1 106.197 87.8287 " fill="none" stroke-width="0.4" stroke="#000000" />
<path d="M 117.935 104.661 A 2.83465 2.83465 0 1 1 112.266 104.661 A 2.83465 2.83465 0 1 1 117.935 104.661 " fill="none" stroke-width="0.4" stroke="#000000" />
<path d="M 130.671 124.067 A 2.83465 2.83465 0 1 1 125.002 124.067 A 2.83465 2.83465 0 1 1 130.671 124.067 " fill="none" stroke-width="0.4" stroke="#000000" />
<path d="M 141.041 130.552 A 2.83465 2.83465 0 1 1 135.371 130.552 A 2.83465 2.83465 0 1 1 141.041 130.552 " fill="none" stroke-width="0.4" stroke="#000000" />
<path d="M 217.916 180.23 A 2.83465 2.83465 0 1 1 212.247 180.23 A 2.83465 2.83465 0 1 1 217.916 180.23 " fill="none" stroke-width="0.4" stroke="#000000" />
<path d="M 260.345 181.293 A 2.83465 2.83465 0 1 1 254.676 181.293 A 2.83465 2.83465 0 1 1 260.345 181.293 " fill="none" stroke-width="0.4" stroke="#000000" />
<path d="M 298.794 185.737 A 2.83465 2.83465 0 1 1 293.125 185.737 A 2.83465 2.83465 0 1 1 298.794 185.737 " fill="none" stroke-width="0.4" stroke="#000000" />
<path d="M 28.3465 198.425 L 28.3465 28.3465 L 311.811 28.3465 " fill="none" stroke-width="0.2" stroke="#000000" />
<text x="48.188976" y="-19.842520" transform="scale(1, -1)" text-anchor="start" fill="#000000" font-size="8.000000" font-family="'Times New Roman', Times, 'Liberation Serif', 'Nimbus Roman', serif" font-style="italic" font-weight="normal">0.1</text>
<text x="76.535433" y="-19.842520" transform="scale(1, -1)" text-anchor="start" fill="#000000" font-size="8.000000" font-family="'Times New Roman', Times, 'Liberation Serif', 'Nimbus Roman', serif" font-style="italic" font-weight="normal">0.2</text>
<text x="104.881890" y="-19.842520" transform="scale(1, -1)" text-anchor="start" fill="#000000" font-size="8.000000" font-family="'Times New Roman', Times, 'Liberation Serif', 'Nimbus Roman', serif" font-style="italic" font-weight="normal">0.3</text>
<text x="133.228346" y="-19.842520" transform="scale(1, -1)" text-anchor="start" fill="#000000" font-size="8.000000" font-family="'Times New Roman', Times, 'Liberation Serif', 'Nimbus Roman', serif" font-style="italic" font-weight="normal">0.4</text>
<text x="161.574803" y="-19.842520" transform="scale(1, -1)" text-anchor="start" fill="#000000" font-size="8.000000" font-family="'Times New Roman', Times, 'Liberation Serif', 'Nimbus Roman', serif" font-style="italic" font-weight="normal">0.5</text>
<text x="189.921260" y="-19.842520" transform="scale(1, -1)" text-anchor="start" fill="#000000" font-size="8.000000" font-family="'Times New Roman', Times, 'Liberation Serif', 'Nimbus Roman', serif" font-style="italic" font-weight="normal">0.6</text>
<text x="218.267717" y="-19.842520" transform="scale(1, -1)" text-anchor="start" fill="#000000" font-size="8.000000" font-family="'Times New Roman', Times, 'Liberation Serif', 'Nimbus Roman', serif" font-style="italic" font-weight="normal">0.7</text>
<text x="246.614173" y="-19.842520" transform="scale(1, -1)" text-anchor="start" fill="#000000" font-size="8.000000" font-family="'Times New Roman', Times, 'Liberation Serif', 'Nimbus Roman', serif" font-style="italic" font-weight="normal">0.8</text>
<text x="274.960630" y="-19.842520" transform="scale(1, -1)" text-anchor="start" fill="#000000" font-size="8.000000" font-family="'Times New Roman', Times, 'Liberation Serif', 'Nimbus Roman', serif" font-style="italic" font-weight="normal">0.9</text>
<text x="303.307087" y="-19.842520" transform="scale(1, -1)" text-anchor="start" fill="#000000" font-size="8.000000" font-family="'Times New Roman', Times, 'Liberation Serif', 'Nimbus Roman', serif" font-style="italic" font-weight="normal">1.0</text>
<text x="22.677165" y="-25.511811" transform="scale(1, -1)" text-anchor="start" fill="#000000" font-size="8.000000" font-family="'Times New Roman', Times, 'Liberation Serif', 'Nimbus Roman', serif" font-style="italic" font-weight="normal">0</text>
<text x="22.677165" y="-53.858268" transform="scale(1, -1)" text-anchor="start" fill="#000000" font-size="8.000000" font-family="'Times New Roman', Times, 'Liberation Serif', 'Nimbus Roman', serif" font-style="italic" font-weight="normal">1</text>
<text x="22.677165" y="-82.204724" transform="scale(1, -1)" text-anchor="start" fill="#000000" font-size="8.000000" font-family="'Times New Roman', Times, 'Liberation Serif', 'Nimbus Roman', serif" font-style="italic" font-weight="normal">2</text>
<text x="22.677165" y="-110.551181" transform="scale(1, -1)" text-anchor="start" fill="#000000" font-size="8.000000" font-family="'Times New Roman', Times, 'Liberation Serif', 'Nimbus Roman', serif" font-style="italic" font-weight="normal">3</text>
<text x="22.677165" y="-138.897638" transform="scale(1, -1)" text-anchor="start" fill="#000000" font-size="8.000000" font-family="'Times New Roman', Times, 'Liberation Serif', 'Nimbus Roman', serif" font-style="italic" font-weight="normal">4</text>
<text x="22.677165" y="-167.244094" transform="scale(1, -1)" text-anchor="start" fill="#000000" font-size="8.000000" font-family="'Times New Roman', Times, 'Liberation Serif', 'Nimbus Roman', serif" font-style="italic" font-weight="normal">5</text>
<text x="22.677165" y="-195.590551" transform="scale(1, -1)" text-anchor="start" fill="#000000" font-size="8.000000" font-family="'Times New Roman', Times, 'Liberation Serif', 'Nimbus Roman', serif" font-style="italic" font-weight="normal">6</text>
<path d="M 56.6929 28.3465 L 56.6929 198.425 " fill="none" stroke-width="0.5" stroke="#000000" />
<path d="M 85.0394 28.3465 L 85.0394 198.425 " fill="none" stroke-width="0.5" stroke="#000000" />
<path d="M 113.386 28.3465 L 113.386 198.425 " fill="none" stroke-width="0.5" stroke="#000000" />
<path d="M 141.732 28.3465 L 141.732 198.425 " fill="none" stroke-width="0.5" stroke="#000000" />
<path d="M 170.079 28.3465 L 170.079 198.425 " fill="none" stroke-width="0.5" stroke="#000000" />
<path d="M 198.425 28.3465 L 198.425 198.425 " fill="none" stroke-width="0.5" stroke="#000000" />
<path d="M 226.772 28.3465 L 226.772 198.425 " fill="none" stroke-width="0.5" stroke="#000000" />
<path d="M 255.118 28.3465 L 255.118 198.425 " fill="none" stroke-width="0.5" stroke="#000000" />
<path d="M 283.465 28.3465 L 283.465 198.425 " fill="none" stroke-width="0.5" stroke="#000000" />
<path d="M 311.811 28.3465 L 311.811 198.425 " fill="none" stroke-width="0.5" stroke="#000000" />
<path d="M 28.3465 56.6929 L 311.811 56.6929 " fill="none" stroke-width="0.5" stroke="#000000" />
<path d="M 28.3465 85.0394 L 311.811 85.0394 " fill="none" stroke-width="0.5" stroke="#000000" />
<path d="M 28.3465 113.386 L 311.811 113.386 " fill="none" stroke-width="0.5" stroke="#000000" />
<path d="M 28.3465 141.732 L 311.811 141.732 " fill="none" stroke-width="0.5" stroke="#000000" />
<path d="M 28.3465 170.079 L 311.811 170.079 " fill="none" stroke-width="0.5" stroke="#000000" />
<path d="M 28.3465 198.425 L 311.811 198.425 " fill="none" stroke-width="0.5" stroke="#000000" />
<text x="150.236220" y="-8.503937" transform="scale(1, -1)" text-anchor="start" fill="#000000" font-size="10.000000" font-family="'Times New Roman', Times, 'Liberation Serif', 'Nimbus Roman', serif" font-style="normal" font-weight="normal">relative temperature</text>
<g transform="rotate(90.000000, 14.173228, 93.543307)">
<text x="14.173228" y="-93.543307" transform="scale(1, -1)" text-anchor="start" fill="#000000" font-size="10.000000" font-family="'Times New Roman', Times, 'Liberation Serif', 'Nimbus Roman', serif" font-style="normal" font-weight="normal">heat capacity</text>
</g>
</g>
</svg>
