<?xml version="1.0" encoding="UTF-8" standalone="no"?>
<svg width="340.157480pt" height="113.385827pt" viewBox="0 -113.385827 340.157480 113.385827" xmlns="http://www.w3.org/2000/svg">
<g transform="scale(1, -1)">
<circle cx="14.173228" cy="56.692913" r="1.000000" fill="#000000" />
<circle cx="14.173228" cy="70.866142" r="1.000000" fill="#000000" />
<path d="M 14.1732 56.6929 L 39.685 56.6929 L 39.685 60.9449 L 43.937 63.7795 L 39.685 66.6142 L 39.685 70.8661 L 14.1732 70.8661 " fill="none" stroke-width="0.2" stroke="#000000" />
<path d="M 42.5197 51.0236 L 22.6772 51.0236 L 22.6772 17.0079 L 85.0394 17.0079 " fill="none" stroke-width="0.2" stroke="#000000" />
<path d="M 102.047 17.0079 L 155.906 17.0079 L 155.906 28.3465 " fill="none" stroke-width="0.2" stroke="#000000" />
<path d="M 155.906 28.3465 L 155.906 56.6929 " fill="none" stroke-width="0.2" stroke="#000000" stroke-dasharray="4,2" />
<path d="M 155.906 70.8661 L 155.906 99.2126 " fill="none" stroke-width="0.2" stroke="#000000" stroke-dasharray="4,2" />
<path d="M 56.6929 28.3465 L 56.6929 56.6929 " fill="none" stroke-width="0.4" stroke="#000000" />
<path d="M 56.6929 99.2126 L 56.6929 70.8661 " fill="none" stroke-width="0.4" stroke="#000000" />
<path d="M 280.63 42.5197 L 280.63 85.0394 L 286.299 85.0394 L 286.299 42.5197 L 280.63 42.5197 " fill="none" stroke-width="0.4" stroke="#000000" />
<path d="M 43.937 63.7795 L 39.685 66.6142 " fill="none" stroke-width="0.4" stroke="#000000" />
<path d="M 42.5197 51.0236 L 48.189 51.0236 " fill="none" stroke-width="0.2" stroke="#000000" />
<path d="M 48.189 76.5354 L 42.5197 76.5354 " fill="none" stroke-width="0.2" stroke="#000000" />
<path d="M 48.189 51.0236 L 48.189 76.5354 " fill="none" stroke-width="1.6" stroke="#000000" />
<path d="M 189.921 60.9449 L 189.921 28.3465 L 28.3465 28.3465 L 28.3465 99.2126 L 189.921 99.2126 L 189.921 66.6142 " fill="none" stroke-width="0.4" stroke="#000000" />
<g>
<path d="M 235.189 24.964 L 238.114 21.0831 L 225.178 11.3349 L 215.429 24.2712 L 228.366 34.0194 L 231.29 30.1385 " fill="none" stroke-width="1" stroke="#000000" />
</g>
<g>
<path d="M 87.1654 11.3386 L 87.1654 22.6772 " fill="none" stroke-width="0.2" stroke="#FF0000" />
<path d="M 95.6693 11.3386 L 95.6693 22.6772 " fill="none" stroke-width="0.2" stroke="#FF0000" />
<path d="M 85.0394 17.0079 L 87.1654 17.0079 " fill="none" stroke-width="0.2" stroke="#FF0000" />
<path d="M 99.9213 17.0079 L 102.047 17.0079 " fill="none" stroke-width="0.2" stroke="#FF0000" />
<path d="M 91.4173 13.6063 L 91.4173 20.4094 " fill="none" stroke-width="1.6" stroke="#FF0000" />
<path d="M 99.9213 13.6063 L 99.9213 20.4094 " fill="none" stroke-width="1.6" stroke="#FF0000" />
</g>
<path d="M 255.118 63.7795 L 280.63 63.7795 L 232.157 26.7817 " fill="none" stroke-width="0.5" stroke="#000000" />
<path d="M 49.8898 51.0236 L 56.6929 51.0236 " fill="none" stroke-width="0.2" stroke="#000000" stroke-dasharray="2,1.6" />
<path d="M 49.8898 53.8583 L 56.6929 53.8583 " fill="none" stroke-width="0.2" stroke="#000000" stroke-dasharray="2,1.6" />
<path d="M 49.8898 56.6929 L 56.6929 56.6929 " fill="none" stroke-width="0.2" stroke="#000000" stroke-dasharray="2,1.6" />
<path d="M 49.8898 59.5276 L 56.6929 59.5276 " fill="none" stroke-width="0.2" stroke="#000000" stroke-dasharray="2,1.6" />
<path d="M 49.8898 62.3622 L 56.6929 62.3622 " fill="none" stroke-width="0.2" stroke="#000000" stroke-dasharray="2,1.6" />
<path d="M 49.8898 65.1969 L 56.6929 65.1969 " fill="none" stroke-width="0.2" stroke="#000000" stroke-dasharray="2,1.6" />
<path d="M 49.8898 68.0315 L 56.6929 68.0315 " fill="none" stroke-width="0.2" stroke="#000000" stroke-dasharray="2,1.6" />
<path d="M 49.8898 70.8661 L 56.6929 70.8661 " fill="none" stroke-width="0.2" stroke="#000000" stroke-dasharray="2,1.6" />
<path d="M 49.8898 73.7008 L 56.6929 73.7008 " fill="none" stroke-width="0.2" stroke="#000000" stroke-dasharray="2,1.6" />
<path d="M 49.8898 76.5354 L 56.6929 76.5354 " fill="none" stroke-width="0.2" stroke="#000000" stroke-dasharray="2,1.6" />
<path d="M 56.6929 59.5276 L 189.921 59.5276 " fill="none" stroke-width="0.2" stroke="#000000" stroke-dasharray="2,1.6" />
<path d="M 56.6929 62.3622 L 189.921 62.3622 " fill="none" stroke-width="0.2" stroke="#000000" stroke-dasharray="2,1.6" />
<path d="M 56.6929 65.1969 L 189.921 65.1969 " fill="none" stroke-width="0.2" stroke="#000000" stroke-dasharray="2,1.6" />
<path d="M 56.6929 68.0315 L 189.921 68.0315 " fill="none" stroke-width="0.2" stroke="#000000" stroke-dasharray="2,1.6" />
<path d="M 189.921 62.3622 L 280.63 62.3622 " fill="none" stroke-width="0.2" stroke="#000000" stroke-dasharray="2,1.6" />
<path d="M 189.921 65.1969 L 280.63 65.1969 " fill="none" stroke-width="0.2" stroke="#000000" stroke-dasharray="2,1.6" />
<path d="M 215.964 43.5765 A 67.748 67.748 0 0 1 244.079 6.73691 " fill="none" stroke-width="0.2" stroke="#0000FF" />
<g>
<path d="M 244.079 6.73691 L 242.415 8.34223 L 240.872 10.1385 L 239.575 12.3166 L 240.261 9.1838 L 237.128 8.49787 L 239.649 8.22911 L 241.925 7.57848 L 244.079 6.73691 " fill="none" stroke-width="0.2" stroke="#0000FF" />
</g>
<g>
<path d="M 215.964 43.5765 L 216.208 41.2767 L 216.235 38.9093 L 215.829 36.4067 L 217.317 39.2475 L 220.158 37.7592 L 218.399 39.5856 L 217.074 41.5472 L 215.964 43.5765 " fill="none" stroke-width="0.2" stroke="#0000FF" />
</g>
<path d="M 280.63 63.7795 L 240.945 33.4942 " fill="none" stroke-width="0.2" stroke="#000000" />
<g>
<path d="M 240.945 33.4942 L 243.023 34.5094 L 245.238 35.3443 L 247.729 35.8187 L 244.55 36.2457 L 244.977 39.4241 L 243.862 37.147 L 242.472 35.2305 L 240.945 33.4942 " fill="none" stroke-width="0.2" stroke="#000000" />
</g>
<path d="M 260.787 63.7795 A 19.8425 19.8425 0 0 1 264.994 51.5633 " fill="none" stroke-width="0.2" stroke="#000000" />
<text x="31.181102" y="-104.881890" transform="scale(1, -1)" text-anchor="start" fill="#000000" font-size="8.000000" font-family="'Times New Roman', Times, 'Liberation Serif', 'Nimbus Roman', serif" font-style="normal" font-weight="normal">cathode</text>
<text x="141.732283" y="-104.881890" transform="scale(1, -1)" text-anchor="start" fill="#000000" font-size="8.000000" font-family="'Times New Roman', Times, 'Liberation Serif', 'Nimbus Roman', serif" font-style="normal" font-weight="normal">anode</text>
<text x="291.968504" y="-77.952756" transform="scale(1, -1)" text-anchor="start" fill="#000000" font-size="8.000000" font-family="'Times New Roman', Times, 'Liberation Serif', 'Nimbus Roman', serif" font-style="normal" font-weight="normal">crystal</text>
<text x="249.448819" y="-14.173228" transform="scale(1, -1)" text-anchor="start" fill="#000000" font-size="8.000000" font-family="'Times New Roman', Times, 'Liberation Serif', 'Nimbus Roman', serif" font-style="normal" font-weight="normal">detector</text>
<text x="90.708661" y="-0.000000" transform="scale(1, -1)" text-anchor="start" fill="#000000" font-size="8.000000" font-family="'Times New Roman', Times, 'Liberation Serif', 'Nimbus Roman', serif" font-style="italic" font-weight="normal">V</text>
<text x="100.629921" y="-7.086614" transform="scale(1, -1)" text-anchor="start" fill="#000000" font-size="8.000000" font-family="'Times New Roman', Times, 'Liberation Serif', 'Nimbus Roman', serif" font-style="normal" font-weight="normal">+</text>
<text x="255.118110" y="-53.858268" transform="scale(1, -1)" text-anchor="start" fill="#000000" font-size="8.000000" font-family="'Times New Roman', Times, 'Liberation Serif', 'Nimbus Roman', serif" font-style="italic" font-weight="normal">φ</text>
</g>
</svg>
