<?xml version="1.0" encoding="UTF-8" standalone="no"?>
<svg width="340.657480pt" height="170.578740pt" viewBox="0 -170.578740 340.657480 170.578740" xmlns="http://www.w3.org/2000/svg">
<g transform="scale(1, -1)">
<g>
<path d="M 34.0657 24.2808 L 102.197 24.2808 " fill="none" stroke-width="0.2" stroke="#000000" />
<path d="M 34.0657 48.3862 L 102.197 48.3862 " fill="none" stroke-width="0.2" stroke="#000000" />
<path d="M 34.0657 88.562 L 102.197 88.562 " fill="none" stroke-width="0.2" stroke="#000000" />
<path d="M 34.0657 144.808 L 102.197 144.808 " fill="none" stroke-width="0.2" stroke="#000000" />
</g>
<g>
<path d="M 136.263 24.2808 L 204.394 24.2808 " fill="none" stroke-width="0.5" stroke="#000000" stroke-dasharray="4,2" />
<path d="M 136.263 48.3862 L 204.394 48.3862 " fill="none" stroke-width="0.5" stroke="#000000" stroke-dasharray="4,2" />
<path d="M 136.263 88.562 L 204.394 88.562 " fill="none" stroke-width="0.5" stroke="#000000" stroke-dasharray="4,2" />
<path d="M 136.263 144.808 L 204.394 144.808 " fill="none" stroke-width="0.5" stroke="#000000" stroke-dasharray="4,2" />
<path d="M 136.263 24.2808 C 164.197 40.3711, 176.461 40.3711, 204.394 24.2808 " fill="none" stroke-width="0.4" stroke="#000000" />
<path d="M 136.263 48.3862 C 150.23 64.4766, 156.362 64.4766, 170.329 48.3862 C 184.296 32.2958, 190.428 32.2958, 204.394 48.3862 " fill="none" stroke-width="0.4" stroke="#000000" />
<path d="M 136.263 88.562 C 145.573 110.016, 149.661 110.016, 158.971 88.562 C 168.282 67.1081, 172.369 67.1081, 181.679 88.562 " fill="none" stroke-width="0.4" stroke="#000000" />
<path d="M 181.679 88.562 C 190.99 110.016, 195.077 110.016, 204.388 88.562 " fill="none" stroke-width="0.4" stroke="#000000" />
<path d="M 136.263 144.808 C 143.246 166.262, 146.312 166.262, 153.296 144.808 C 160.279 123.354, 163.345 123.354, 170.329 144.808 C 177.312 166.262, 180.378 166.262, 187.362 144.808 C 194.345 123.354, 197.411 123.354, 204.394 144.808 " fill="none" stroke-width="0.4" stroke="#000000" />
</g>
<g>
<path d="M 238.46 24.2808 L 306.592 24.2808 " fill="none" stroke-width="0.5" stroke="#000000" stroke-dasharray="4,2" />
<path d="M 238.46 48.3862 L 306.592 48.3862 " fill="none" stroke-width="0.5" stroke="#000000" stroke-dasharray="4,2" />
<path d="M 238.46 88.562 L 306.592 88.562 " fill="none" stroke-width="0.5" stroke="#000000" stroke-dasharray="4,2" />
<path d="M 238.46 144.808 L 306.592 144.808 " fill="none" stroke-width="0.5" stroke="#000000" stroke-dasharray="4,2" />
<path d="M 238.46 24.12 C 250.894 24.12, 260.092 36.3335, 272.526 36.3335 C 284.96 36.3335, 294.158 24.12, 306.592 24.12 " fill="none" stroke-width="0.4" stroke="#000000" />
<path d="M 238.46 48.2255 C 244.677 48.2255, 249.276 60.439, 255.493 60.439 C 261.71 60.439, 266.309 48.2255, 272.526 48.2255 C 278.743 48.2255, 283.342 60.439, 289.559 60.439 C 295.776 60.439, 300.375 48.2255, 306.592 48.2255 " fill="none" stroke-width="0.4" stroke="#000000" />
<path d="M 238.46 88.6022 C 242.604 88.6022, 245.67 104.632, 249.814 104.632 C 253.959 104.632, 257.024 88.6022, 261.168 88.6022 C 265.313 88.6022, 268.378 104.632, 272.523 104.632 C 276.667 104.632, 279.732 88.6022, 283.877 88.6022 C 288.021 88.6022, 291.087 104.632, 295.231 104.632 C 299.375 104.632, 302.441 88.6022, 306.585 88.6022 " fill="none" stroke-width="0.4" stroke="#000000" />
<path d="M 238.46 144.848 C 241.569 144.848, 243.868 160.878, 246.977 160.878 C 250.085 160.878, 252.385 144.848, 255.493 144.848 C 258.602 144.848, 260.901 160.878, 264.01 160.878 C 267.118 160.878, 269.417 144.848, 272.526 144.848 C 275.634 144.848, 277.934 160.878, 281.042 160.878 C 284.151 160.878, 286.45 144.848, 289.559 144.848 C 292.667 144.848, 294.967 160.878, 298.075 160.878 C 301.184 160.878, 303.483 144.848, 306.592 144.848 " fill="none" stroke-width="0.4" stroke="#000000" />
</g>
<g>
<path d="M 34.0657 168.914 L 34.0657 16.2456 L 102.197 16.2456 L 102.197 168.914 " fill="none" stroke-width="1" stroke="#000000" />
</g>
<g>
<path d="M 136.263 168.914 L 136.263 16.2456 L 204.394 16.2456 L 204.394 168.914 " fill="none" stroke-width="1" stroke="#000000" />
</g>
<g>
<path d="M 238.46 168.914 L 238.46 16.2456 L 306.592 16.2456 L 306.592 168.914 " fill="none" stroke-width="1" stroke="#000000" />
</g>
<text x="105.603819" y="-146.210349" transform="scale(1, -1)" text-anchor="start" fill="#000000" font-size="8.000000" font-family="'Times New Roman', Times, 'Liberation Serif', 'Nimbus Roman', serif" font-style="normal" font-weight="normal">16</text>
<text x="113.603819" y="-146.210349" transform="scale(1, -1)" text-anchor="start" fill="#000000" font-size="8.000000" font-family="'Times New Roman', Times, 'Liberation Serif', 'Nimbus Roman', serif" font-style="italic" font-weight="normal">E</text>
<text x="118.491819" y="-145.090349" transform="scale(1, -1)" text-anchor="start" fill="#000000" font-size="5.600000" font-family="'Times New Roman', Times, 'Liberation Serif', 'Nimbus Roman', serif" font-style="normal" font-weight="normal">1</text>
<text x="207.801063" y="-146.210349" transform="scale(1, -1)" text-anchor="start" fill="#000000" font-size="8.000000" font-family="'Times New Roman', Times, 'Liberation Serif', 'Nimbus Roman', serif" font-style="italic" font-weight="normal">ϕ</text>
<text x="213.033063" y="-145.090349" transform="scale(1, -1)" text-anchor="start" fill="#000000" font-size="5.600000" font-family="'Times New Roman', Times, 'Liberation Serif', 'Nimbus Roman', serif" font-style="normal" font-weight="normal">4</text>
<text x="309.998307" y="-146.210349" transform="scale(1, -1)" text-anchor="start" fill="#000000" font-size="8.000000" font-family="'Times New Roman', Times, 'Liberation Serif', 'Nimbus Roman', serif" font-style="italic" font-weight="normal">ρ</text>
<text x="314.134307" y="-145.090349" transform="scale(1, -1)" text-anchor="start" fill="#000000" font-size="5.600000" font-family="'Times New Roman', Times, 'Liberation Serif', 'Nimbus Roman', serif" font-style="normal" font-weight="normal">4</text>
<text x="105.603819" y="-89.350769" transform="scale(1, -1)" text-anchor="start" fill="#000000" font-size="8.000000" font-family="'Times New Roman', Times, 'Liberation Serif', 'Nimbus Roman', serif" font-style="normal" font-weight="normal">9</text>
<text x="109.603819" y="-89.350769" transform="scale(1, -1)" text-anchor="start" fill="#000000" font-size="8.000000" font-family="'Times New Roman', Times, 'Liberation Serif', 'Nimbus Roman', serif" font-style="italic" font-weight="normal">E</text>
<text x="114.491819" y="-88.230769" transform="scale(1, -1)" text-anchor="start" fill="#000000" font-size="5.600000" font-family="'Times New Roman', Times, 'Liberation Serif', 'Nimbus Roman', serif" font-style="normal" font-weight="normal">1</text>
<text x="207.801063" y="-89.350769" transform="scale(1, -1)" text-anchor="start" fill="#000000" font-size="8.000000" font-family="'Times New Roman', Times, 'Liberation Serif', 'Nimbus Roman', serif" font-style="italic" font-weight="normal">ϕ</text>
<text x="213.033063" y="-88.230769" transform="scale(1, -1)" text-anchor="start" fill="#000000" font-size="5.600000" font-family="'Times New Roman', Times, 'Liberation Serif', 'Nimbus Roman', serif" font-style="normal" font-weight="normal">3</text>
<text x="309.998307" y="-89.350769" transform="scale(1, -1)" text-anchor="start" fill="#000000" font-size="8.000000" font-family="'Times New Roman', Times, 'Liberation Serif', 'Nimbus Roman', serif" font-style="italic" font-weight="normal">ρ</text>
<text x="314.134307" y="-88.230769" transform="scale(1, -1)" text-anchor="start" fill="#000000" font-size="5.600000" font-family="'Times New Roman', Times, 'Liberation Serif', 'Nimbus Roman', serif" font-style="normal" font-weight="normal">3</text>
<text x="105.603819" y="-48.736783" transform="scale(1, -1)" text-anchor="start" fill="#000000" font-size="8.000000" font-family="'Times New Roman', Times, 'Liberation Serif', 'Nimbus Roman', serif" font-style="normal" font-weight="normal">4</text>
<text x="109.603819" y="-48.736783" transform="scale(1, -1)" text-anchor="start" fill="#000000" font-size="8.000000" font-family="'Times New Roman', Times, 'Liberation Serif', 'Nimbus Roman', serif" font-style="italic" font-weight="normal">E</text>
<text x="114.491819" y="-47.616783" transform="scale(1, -1)" text-anchor="start" fill="#000000" font-size="5.600000" font-family="'Times New Roman', Times, 'Liberation Serif', 'Nimbus Roman', serif" font-style="normal" font-weight="normal">1</text>
<text x="207.801063" y="-48.736783" transform="scale(1, -1)" text-anchor="start" fill="#000000" font-size="8.000000" font-family="'Times New Roman', Times, 'Liberation Serif', 'Nimbus Roman', serif" font-style="italic" font-weight="normal">ϕ</text>
<text x="213.033063" y="-47.616783" transform="scale(1, -1)" text-anchor="start" fill="#000000" font-size="5.600000" font-family="'Times New Roman', Times, 'Liberation Serif', 'Nimbus Roman', serif" font-style="normal" font-weight="normal">2</text>
<text x="309.998307" y="-48.736783" transform="scale(1, -1)" text-anchor="start" fill="#000000" font-size="8.000000" font-family="'Times New Roman', Times, 'Liberation Serif', 'Nimbus Roman', serif" font-style="italic" font-weight="normal">ρ</text>
<text x="314.134307" y="-47.616783" transform="scale(1, -1)" text-anchor="start" fill="#000000" font-size="5.600000" font-family="'Times New Roman', Times, 'Liberation Serif', 'Nimbus Roman', serif" font-style="normal" font-weight="normal">2</text>
<text x="105.603819" y="-24.368391" transform="scale(1, -1)" text-anchor="start" fill="#000000" font-size="8.000000" font-family="'Times New Roman', Times, 'Liberation Serif', 'Nimbus Roman', serif" font-style="italic" font-weight="normal">E</text>
<text x="110.491819" y="-23.248391" transform="scale(1, -1)" text-anchor="start" fill="#000000" font-size="5.600000" font-family="'Times New Roman', Times, 'Liberation Serif', 'Nimbus Roman', serif" font-style="normal" font-weight="normal">1</text>
<text x="207.801063" y="-24.368391" transform="scale(1, -1)" text-anchor="start" fill="#000000" font-size="8.000000" font-family="'Times New Roman', Times, 'Liberation Serif', 'Nimbus Roman', serif" font-style="italic" font-weight="normal">ϕ</text>
<text x="213.033063" y="-23.248391" transform="scale(1, -1)" text-anchor="start" fill="#000000" font-size="5.600000" font-family="'Times New Roman', Times, 'Liberation Serif', 'Nimbus Roman', serif" font-style="normal" font-weight="normal">1</text>
<text x="309.998307" y="-24.368391" transform="scale(1, -1)" text-anchor="start" fill="#000000" font-size="8.000000" font-family="'Times New Roman', Times, 'Liberation Serif', 'Nimbus Roman', serif" font-style="italic" font-weight="normal">ρ</text>
<text x="314.134307" y="-23.248391" transform="scale(1, -1)" text-anchor="start" fill="#000000" font-size="5.600000" font-family="'Times New Roman', Times, 'Liberation Serif', 'Nimbus Roman', serif" font-style="normal" font-weight="normal">1</text>
<text x="23.846024" y="-24.368391" transform="scale(1, -1)" text-anchor="start" fill="#000000" font-size="8.000000" font-family="'Times New Roman', Times, 'Liberation Serif', 'Nimbus Roman', serif" font-style="normal" font-weight="normal"> </text>
<text x="25.846024" y="-24.368391" transform="scale(1, -1)" text-anchor="start" fill="#000000" font-size="8.000000" font-family="'Times New Roman', Times, 'Liberation Serif', 'Nimbus Roman', serif" font-style="italic" font-weight="normal">E</text>
<text x="30.734024" y="-23.248391" transform="scale(1, -1)" text-anchor="start" fill="#000000" font-size="5.600000" font-family="'Times New Roman', Times, 'Liberation Serif', 'Nimbus Roman', serif" font-style="italic" font-weight="normal">1</text>
<text x="23.846024" y="-48.736783" transform="scale(1, -1)" text-anchor="start" fill="#000000" font-size="8.000000" font-family="'Times New Roman', Times, 'Liberation Serif', 'Nimbus Roman', serif" font-style="normal" font-weight="normal"> </text>
<text x="25.846024" y="-48.736783" transform="scale(1, -1)" text-anchor="start" fill="#000000" font-size="8.000000" font-family="'Times New Roman', Times, 'Liberation Serif', 'Nimbus Roman', serif" font-style="italic" font-weight="normal">E</text>
<text x="30.734024" y="-47.616783" transform="scale(1, -1)" text-anchor="start" fill="#000000" font-size="5.600000" font-family="'Times New Roman', Times, 'Liberation Serif', 'Nimbus Roman', serif" font-style="italic" font-weight="normal">2</text>
<text x="23.846024" y="-89.350769" transform="scale(1, -1)" text-anchor="start" fill="#000000" font-size="8.000000" font-family="'Times New Roman', Times, 'Liberation Serif', 'Nimbus Roman', serif" font-style="normal" font-weight="normal"> </text>
<text x="25.846024" y="-89.350769" transform="scale(1, -1)" text-anchor="start" fill="#000000" font-size="8.000000" font-family="'Times New Roman', Times, 'Liberation Serif', 'Nimbus Roman', serif" font-style="italic" font-weight="normal">E</text>
<text x="30.734024" y="-88.230769" transform="scale(1, -1)" text-anchor="start" fill="#000000" font-size="5.600000" font-family="'Times New Roman', Times, 'Liberation Serif', 'Nimbus Roman', serif" font-style="italic" font-weight="normal">3</text>
<text x="23.846024" y="-146.210349" transform="scale(1, -1)" text-anchor="start" fill="#000000" font-size="8.000000" font-family="'Times New Roman', Times, 'Liberation Serif', 'Nimbus Roman', serif" font-style="normal" font-weight="normal"> </text>
<text x="25.846024" y="-146.210349" transform="scale(1, -1)" text-anchor="start" fill="#000000" font-size="8.000000" font-family="'Times New Roman', Times, 'Liberation Serif', 'Nimbus Roman', serif" font-style="italic" font-weight="normal">E</text>
<text x="30.734024" y="-145.090349" transform="scale(1, -1)" text-anchor="start" fill="#000000" font-size="5.600000" font-family="'Times New Roman', Times, 'Liberation Serif', 'Nimbus Roman', serif" font-style="italic" font-weight="normal">4</text>
<text x="64.724921" y="-4.061399" transform="scale(1, -1)" text-anchor="start" fill="#000000" font-size="8.000000" font-family="'Times New Roman', Times, 'Liberation Serif', 'Nimbus Roman', serif" font-style="normal" font-weight="normal">a)</text>
<text x="166.922165" y="-4.061399" transform="scale(1, -1)" text-anchor="start" fill="#000000" font-size="8.000000" font-family="'Times New Roman', Times, 'Liberation Serif', 'Nimbus Roman', serif" font-style="normal" font-weight="normal">b)</text>
<text x="269.119409" y="-4.061399" transform="scale(1, -1)" text-anchor="start" fill="#000000" font-size="8.000000" font-family="'Times New Roman', Times, 'Liberation Serif', 'Nimbus Roman', serif" font-style="normal" font-weight="normal">c)</text>
</g>
</svg>
