<?xml version="1.0" encoding="UTF-8" standalone="no"?>
<svg width="340.157480pt" height="170.078740pt" viewBox="0 -170.078740 340.157480 170.078740" xmlns="http://www.w3.org/2000/svg">
<g transform="scale(1, -1)">
<g>
<path d="M 137.683 20.013 L 170.079 20.013 " fill="none" stroke-width="0.2" stroke="#000000" />
<path d="M 137.683 31.4582 L 170.079 31.4582 " fill="none" stroke-width="0.2" stroke="#000000" />
<path d="M 137.683 50.5334 L 170.079 50.5334 " fill="none" stroke-width="0.2" stroke="#000000" />
<path d="M 137.683 77.2388 L 170.079 77.2388 " fill="none" stroke-width="0.2" stroke="#000000" />
</g>
<g>
<path d="M 161.98 20.013 L 194.376 20.013 " fill="none" stroke-width="0.5" stroke="#000000" stroke-dasharray="4,2" />
<path d="M 161.98 31.4582 L 194.376 31.4582 " fill="none" stroke-width="0.5" stroke="#000000" stroke-dasharray="4,2" />
<path d="M 161.98 50.5334 L 194.376 50.5334 " fill="none" stroke-width="0.5" stroke="#000000" stroke-dasharray="4,2" />
<path d="M 161.98 77.2388 L 194.376 77.2388 " fill="none" stroke-width="0.5" stroke="#000000" stroke-dasharray="4,2" />
<path d="M 161.98 20.013 C 175.262 27.6527, 181.093 27.6527, 194.376 20.013 " fill="none" stroke-width="0.4" stroke="#000000" />
<path d="M 161.98 31.4582 C 168.621 39.0978, 171.537 39.0978, 178.178 31.4582 C 184.819 23.8185, 187.735 23.8185, 194.376 31.4582 " fill="none" stroke-width="0.4" stroke="#000000" />
<path d="M 161.98 50.5334 C 166.407 60.7196, 168.35 60.7196, 172.777 50.5334 C 177.204 40.3472, 179.148 40.3472, 183.575 50.5334 " fill="none" stroke-width="0.4" stroke="#000000" />
<path d="M 183.575 50.5334 C 188.002 60.7196, 189.945 60.7196, 194.372 50.5334 " fill="none" stroke-width="0.4" stroke="#000000" />
<path d="M 161.98 77.2388 C 165.3 87.4249, 166.758 87.4249, 170.079 77.2388 C 173.399 67.0526, 174.857 67.0526, 178.178 77.2388 C 181.498 87.4249, 182.956 87.4249, 186.277 77.2388 C 189.597 67.0526, 191.055 67.0526, 194.376 77.2388 " fill="none" stroke-width="0.4" stroke="#000000" />
</g>
<g>
<path d="M 186.277 20.013 L 218.673 20.013 " fill="none" stroke-width="0.5" stroke="#000000" stroke-dasharray="4,2" />
<path d="M 186.277 31.4582 L 218.673 31.4582 " fill="none" stroke-width="0.5" stroke="#000000" stroke-dasharray="4,2" />
<path d="M 186.277 50.5334 L 218.673 50.5334 " fill="none" stroke-width="0.5" stroke="#000000" stroke-dasharray="4,2" />
<path d="M 186.277 77.2388 L 218.673 77.2388 " fill="none" stroke-width="0.5" stroke="#000000" stroke-dasharray="4,2" />
<path d="M 186.277 19.9367 C 192.189 19.9367, 196.562 25.7356, 202.475 25.7356 C 208.387 25.7356, 212.76 19.9367, 218.673 19.9367 " fill="none" stroke-width="0.4" stroke="#000000" />
<path d="M 186.277 31.3819 C 189.233 31.3819, 191.42 37.1807, 194.376 37.1807 C 197.332 37.1807, 199.519 31.3819, 202.475 31.3819 C 205.431 31.3819, 207.618 37.1807, 210.574 37.1807 C 213.53 37.1807, 215.717 31.3819, 218.673 31.3819 " fill="none" stroke-width="0.4" stroke="#000000" />
<path d="M 186.277 50.5525 C 188.247 50.5525, 189.705 58.1635, 191.676 58.1635 C 193.646 58.1635, 195.104 50.5525, 197.074 50.5525 C 199.045 50.5525, 200.503 58.1635, 202.473 58.1635 C 204.444 58.1635, 205.901 50.5525, 207.872 50.5525 C 209.842 50.5525, 211.3 58.1635, 213.271 58.1635 C 215.241 58.1635, 216.699 50.5525, 218.669 50.5525 " fill="none" stroke-width="0.4" stroke="#000000" />
<path d="M 186.277 77.2578 C 187.755 77.2578, 188.848 84.8689, 190.326 84.8689 C 191.804 84.8689, 192.898 77.2578, 194.376 77.2578 C 195.854 77.2578, 196.947 84.8689, 198.425 84.8689 C 199.903 84.8689, 200.997 77.2578, 202.475 77.2578 C 203.953 77.2578, 205.046 84.8689, 206.524 84.8689 C 208.002 84.8689, 209.096 77.2578, 210.574 77.2578 C 212.052 77.2578, 213.145 84.8689, 214.623 84.8689 C 216.101 84.8689, 217.195 77.2578, 218.673 77.2578 " fill="none" stroke-width="0.4" stroke="#000000" />
</g>
<g>
<path d="M 137.683 88.6839 L 137.683 16.198 L 170.079 16.198 L 170.079 88.6839 " fill="none" stroke-width="1" stroke="#000000" />
</g>
<g>
<path d="M 161.98 88.6839 L 161.98 16.198 L 194.376 16.198 L 194.376 88.6839 " fill="none" stroke-width="1" stroke="#000000" />
</g>
<g>
<path d="M 186.277 88.6839 L 186.277 16.198 L 218.673 16.198 L 218.673 88.6839 " fill="none" stroke-width="1" stroke="#000000" />
</g>
<text x="154.690664" y="-145.781777" transform="scale(1, -1)" text-anchor="start" fill="#000000" font-size="8.000000" font-family="'Times New Roman', Times, 'Liberation Serif', 'Nimbus Roman', serif" font-style="normal" font-weight="normal">16</text>
<text x="162.690664" y="-145.781777" transform="scale(1, -1)" text-anchor="start" fill="#000000" font-size="8.000000" font-family="'Times New Roman', Times, 'Liberation Serif', 'Nimbus Roman', serif" font-style="italic" font-weight="normal">E</text>
<text x="167.578664" y="-144.661777" transform="scale(1, -1)" text-anchor="start" fill="#000000" font-size="5.600000" font-family="'Times New Roman', Times, 'Liberation Serif', 'Nimbus Roman', serif" font-style="normal" font-weight="normal">1</text>
<text x="178.987627" y="-145.781777" transform="scale(1, -1)" text-anchor="start" fill="#000000" font-size="8.000000" font-family="'Times New Roman', Times, 'Liberation Serif', 'Nimbus Roman', serif" font-style="italic" font-weight="normal">ϕ</text>
<text x="184.219627" y="-144.661777" transform="scale(1, -1)" text-anchor="start" fill="#000000" font-size="5.600000" font-family="'Times New Roman', Times, 'Liberation Serif', 'Nimbus Roman', serif" font-style="normal" font-weight="normal">4</text>
<text x="203.284589" y="-145.781777" transform="scale(1, -1)" text-anchor="start" fill="#000000" font-size="8.000000" font-family="'Times New Roman', Times, 'Liberation Serif', 'Nimbus Roman', serif" font-style="italic" font-weight="normal">ρ</text>
<text x="207.420589" y="-144.661777" transform="scale(1, -1)" text-anchor="start" fill="#000000" font-size="5.600000" font-family="'Times New Roman', Times, 'Liberation Serif', 'Nimbus Roman', serif" font-style="normal" font-weight="normal">4</text>
<text x="154.690664" y="-89.088864" transform="scale(1, -1)" text-anchor="start" fill="#000000" font-size="8.000000" font-family="'Times New Roman', Times, 'Liberation Serif', 'Nimbus Roman', serif" font-style="normal" font-weight="normal">9</text>
<text x="158.690664" y="-89.088864" transform="scale(1, -1)" text-anchor="start" fill="#000000" font-size="8.000000" font-family="'Times New Roman', Times, 'Liberation Serif', 'Nimbus Roman', serif" font-style="italic" font-weight="normal">E</text>
<text x="163.578664" y="-87.968864" transform="scale(1, -1)" text-anchor="start" fill="#000000" font-size="5.600000" font-family="'Times New Roman', Times, 'Liberation Serif', 'Nimbus Roman', serif" font-style="normal" font-weight="normal">1</text>
<text x="178.987627" y="-89.088864" transform="scale(1, -1)" text-anchor="start" fill="#000000" font-size="8.000000" font-family="'Times New Roman', Times, 'Liberation Serif', 'Nimbus Roman', serif" font-style="italic" font-weight="normal">ϕ</text>
<text x="184.219627" y="-87.968864" transform="scale(1, -1)" text-anchor="start" fill="#000000" font-size="5.600000" font-family="'Times New Roman', Times, 'Liberation Serif', 'Nimbus Roman', serif" font-style="normal" font-weight="normal">3</text>
<text x="203.284589" y="-89.088864" transform="scale(1, -1)" text-anchor="start" fill="#000000" font-size="8.000000" font-family="'Times New Roman', Times, 'Liberation Serif', 'Nimbus Roman', serif" font-style="italic" font-weight="normal">ρ</text>
<text x="207.420589" y="-87.968864" transform="scale(1, -1)" text-anchor="start" fill="#000000" font-size="5.600000" font-family="'Times New Roman', Times, 'Liberation Serif', 'Nimbus Roman', serif" font-style="normal" font-weight="normal">3</text>
<text x="154.690664" y="-48.593926" transform="scale(1, -1)" text-anchor="start" fill="#000000" font-size="8.000000" font-family="'Times New Roman', Times, 'Liberation Serif', 'Nimbus Roman', serif" font-style="normal" font-weight="normal">4</text>
<text x="158.690664" y="-48.593926" transform="scale(1, -1)" text-anchor="start" fill="#000000" font-size="8.000000" font-family="'Times New Roman', Times, 'Liberation Serif', 'Nimbus Roman', serif" font-style="italic" font-weight="normal">E</text>
<text x="163.578664" y="-47.473926" transform="scale(1, -1)" text-anchor="start" fill="#000000" font-size="5.600000" font-family="'Times New Roman', Times, 'Liberation Serif', 'Nimbus Roman', serif" font-style="normal" font-weight="normal">1</text>
<text x="178.987627" y="-48.593926" transform="scale(1, -1)" text-anchor="start" fill="#000000" font-size="8.000000" font-family="'Times New Roman', Times, 'Liberation Serif', 'Nimbus Roman', serif" font-style="italic" font-weight="normal">ϕ</text>
<text x="184.219627" y="-47.473926" transform="scale(1, -1)" text-anchor="start" fill="#000000" font-size="5.600000" font-family="'Times New Roman', Times, 'Liberation Serif', 'Nimbus Roman', serif" font-style="normal" font-weight="normal">2</text>
<text x="203.284589" y="-48.593926" transform="scale(1, -1)" text-anchor="start" fill="#000000" font-size="8.000000" font-family="'Times New Roman', Times, 'Liberation Serif', 'Nimbus Roman', serif" font-style="italic" font-weight="normal">ρ</text>
<text x="207.420589" y="-47.473926" transform="scale(1, -1)" text-anchor="start" fill="#000000" font-size="5.600000" font-family="'Times New Roman', Times, 'Liberation Serif', 'Nimbus Roman', serif" font-style="normal" font-weight="normal">2</text>
<text x="154.690664" y="-24.296963" transform="scale(1, -1)" text-anchor="start" fill="#000000" font-size="8.000000" font-family="'Times New Roman', Times, 'Liberation Serif', 'Nimbus Roman', serif" font-style="italic" font-weight="normal">E</text>
<text x="159.578664" y="-23.176963" transform="scale(1, -1)" text-anchor="start" fill="#000000" font-size="5.600000" font-family="'Times New Roman', Times, 'Liberation Serif', 'Nimbus Roman', serif" font-style="normal" font-weight="normal">1</text>
<text x="178.987627" y="-24.296963" transform="scale(1, -1)" text-anchor="start" fill="#000000" font-size="8.000000" font-family="'Times New Roman', Times, 'Liberation Serif', 'Nimbus Roman', serif" font-style="italic" font-weight="normal">ϕ</text>
<text x="184.219627" y="-23.176963" transform="scale(1, -1)" text-anchor="start" fill="#000000" font-size="5.600000" font-family="'Times New Roman', Times, 'Liberation Serif', 'Nimbus Roman', serif" font-style="normal" font-weight="normal">1</text>
<text x="203.284589" y="-24.296963" transform="scale(1, -1)" text-anchor="start" fill="#000000" font-size="8.000000" font-family="'Times New Roman', Times, 'Liberation Serif', 'Nimbus Roman', serif" font-style="italic" font-weight="normal">ρ</text>
<text x="207.420589" y="-23.176963" transform="scale(1, -1)" text-anchor="start" fill="#000000" font-size="5.600000" font-family="'Times New Roman', Times, 'Liberation Serif', 'Nimbus Roman', serif" font-style="normal" font-weight="normal">1</text>
<text x="135.253093" y="-24.296963" transform="scale(1, -1)" text-anchor="start" fill="#000000" font-size="8.000000" font-family="'Times New Roman', Times, 'Liberation Serif', 'Nimbus Roman', serif" font-style="normal" font-weight="normal"> </text>
<text x="137.253093" y="-24.296963" transform="scale(1, -1)" text-anchor="start" fill="#000000" font-size="8.000000" font-family="'Times New Roman', Times, 'Liberation Serif', 'Nimbus Roman', serif" font-style="italic" font-weight="normal">E</text>
<text x="142.141093" y="-23.176963" transform="scale(1, -1)" text-anchor="start" fill="#000000" font-size="5.600000" font-family="'Times New Roman', Times, 'Liberation Serif', 'Nimbus Roman', serif" font-style="italic" font-weight="normal">1</text>
<text x="135.253093" y="-48.593926" transform="scale(1, -1)" text-anchor="start" fill="#000000" font-size="8.000000" font-family="'Times New Roman', Times, 'Liberation Serif', 'Nimbus Roman', serif" font-style="normal" font-weight="normal"> </text>
<text x="137.253093" y="-48.593926" transform="scale(1, -1)" text-anchor="start" fill="#000000" font-size="8.000000" font-family="'Times New Roman', Times, 'Liberation Serif', 'Nimbus Roman', serif" font-style="italic" font-weight="normal">E</text>
<text x="142.141093" y="-47.473926" transform="scale(1, -1)" text-anchor="start" fill="#000000" font-size="5.600000" font-family="'Times New Roman', Times, 'Liberation Serif', 'Nimbus Roman', serif" font-style="italic" font-weight="normal">2</text>
<text x="135.253093" y="-89.088864" transform="scale(1, -1)" text-anchor="start" fill="#000000" font-size="8.000000" font-family="'Times New Roman', Times, 'Liberation Serif', 'Nimbus Roman', serif" font-style="normal" font-weight="normal"> </text>
<text x="137.253093" y="-89.088864" transform="scale(1, -1)" text-anchor="start" fill="#000000" font-size="8.000000" font-family="'Times New Roman', Times, 'Liberation Serif', 'Nimbus Roman', serif" font-style="italic" font-weight="normal">E</text>
<text x="142.141093" y="-87.968864" transform="scale(1, -1)" text-anchor="start" fill="#000000" font-size="5.600000" font-family="'Times New Roman', Times, 'Liberation Serif', 'Nimbus Roman', serif" font-style="italic" font-weight="normal">3</text>
<text x="135.253093" y="-145.781777" transform="scale(1, -1)" text-anchor="start" fill="#000000" font-size="8.000000" font-family="'Times New Roman', Times, 'Liberation Serif', 'Nimbus Roman', serif" font-style="normal" font-weight="normal"> </text>
<text x="137.253093" y="-145.781777" transform="scale(1, -1)" text-anchor="start" fill="#000000" font-size="8.000000" font-family="'Times New Roman', Times, 'Liberation Serif', 'Nimbus Roman', serif" font-style="italic" font-weight="normal">E</text>
<text x="142.141093" y="-144.661777" transform="scale(1, -1)" text-anchor="start" fill="#000000" font-size="5.600000" font-family="'Times New Roman', Times, 'Liberation Serif', 'Nimbus Roman', serif" font-style="italic" font-weight="normal">4</text>
<text x="144.971879" y="-4.049494" transform="scale(1, -1)" text-anchor="start" fill="#000000" font-size="8.000000" font-family="'Times New Roman', Times, 'Liberation Serif', 'Nimbus Roman', serif" font-style="normal" font-weight="normal">a)</text>
<text x="169.268841" y="-4.049494" transform="scale(1, -1)" text-anchor="start" fill="#000000" font-size="8.000000" font-family="'Times New Roman', Times, 'Liberation Serif', 'Nimbus Roman', serif" font-style="normal" font-weight="normal">b)</text>
<text x="193.565804" y="-4.049494" transform="scale(1, -1)" text-anchor="start" fill="#000000" font-size="8.000000" font-family="'Times New Roman', Times, 'Liberation Serif', 'Nimbus Roman', serif" font-style="normal" font-weight="normal">c)</text>
</g>
</svg>
