<?xml version="1.0" encoding="UTF-8" standalone="no"?>
<svg width="311.811024pt" height="218.267717pt" viewBox="0 -218.267717 311.811024 218.267717" xmlns="http://www.w3.org/2000/svg">
<g transform="scale(1, -1)">
<g>
<g>
<path d="M 87.7194 9.92126 L 87.7194 50.1024 " fill="none" stroke-width="0.5" stroke="#000000" />
<path d="M 87.7194 59.0315 L 87.7194 99.2126 " fill="none" stroke-width="0.5" stroke="#000000" />
<path d="M 141.835 9.92126 L 141.835 99.2126 " fill="none" stroke-width="0.5" stroke="#000000" />
<path d="M 204.971 9.92126 L 204.971 36.7087 " fill="none" stroke-width="0.5" stroke="#000000" />
<path d="M 204.971 45.6378 L 204.971 63.4961 " fill="none" stroke-width="0.5" stroke="#000000" />
<path d="M 204.971 72.4252 L 204.971 99.2126 " fill="none" stroke-width="0.5" stroke="#000000" />
<path d="M 259.087 9.92126 L 259.087 99.2126 " fill="none" stroke-width="0.5" stroke="#000000" />
</g>
<g>
<g>
<g>
<path d="M 92.2291 54.5669 L 92.6377 53.4508 L 93.8416 52.3346 L 95.7959 51.2185 L 98.4246 50.1024 L 101.628 48.9862 L 105.285 47.8701 L 109.263 46.7539 L 113.423 45.6378 L 117.623 44.5217 L 121.731 43.4055 L 125.627 42.2894 L 129.207 41.1732 L 132.391 40.0571 L 135.122 38.9409 L 137.368 37.8248 L 139.122 36.7087 L 140.402 35.5925 L 141.243 34.4764 L 141.699 33.3602 L 141.835 32.2441 L 141.724 31.128 L 141.439 30.0118 L 141.052 28.8957 L 140.63 27.7795 L 140.227 26.6634 L 139.889 25.5472 L 139.646 24.4311 L 139.516 23.315 L 139.503 22.1988 L 139.602 21.0827 L 139.795 19.9665 L 140.06 18.8504 L 140.37 17.7343 L 140.697 16.6181 L 141.015 15.502 L 141.299 14.3858 L 141.533 13.2697 L 141.702 12.1535 L 141.803 11.0374 L 141.835 9.92126 " fill="none" stroke-width="0.4" stroke="#000000" />
</g>
<g>
<path d="M 92.2291 54.5669 L 92.6377 55.6831 L 93.8416 56.7992 L 95.7959 57.9154 L 98.4246 59.0315 L 101.628 60.1476 L 105.285 61.2638 L 109.263 62.3799 L 113.423 63.4961 L 117.623 64.6122 L 121.731 65.7283 L 125.627 66.8445 L 129.207 67.9606 L 132.391 69.0768 L 135.122 70.1929 L 137.368 71.3091 L 139.122 72.4252 L 140.402 73.5413 L 141.243 74.6575 L 141.699 75.7736 L 141.835 76.8898 L 141.724 78.0059 L 141.439 79.122 L 141.052 80.2382 L 140.63 81.3543 L 140.227 82.4705 L 139.889 83.5866 L 139.646 84.7028 L 139.516 85.8189 L 139.503 86.935 L 139.602 88.0512 L 139.795 89.1673 L 140.06 90.2835 L 140.37 91.3996 L 140.697 92.5157 L 141.015 93.6319 L 141.299 94.748 L 141.533 95.8642 L 141.702 96.9803 L 141.803 98.0965 L 141.835 99.2126 " fill="none" stroke-width="0.4" stroke="#000000" />
</g>
</g>
</g>
<g>
<g>
<g>
<path d="M 204.971 54.5669 L 208.027 54.0089 L 216.478 53.4508 L 228.372 52.8927 L 240.998 52.3346 L 251.561 51.7766 L 257.858 51.2185 L 258.786 50.6604 L 254.564 50.1024 L 246.616 49.5443 L 237.155 48.9862 L 228.61 48.4281 L 223.021 47.8701 L 221.581 47.312 L 224.423 46.7539 L 230.681 46.1959 L 238.8 45.6378 L 246.981 45.0797 L 253.643 44.5217 L 257.77 43.9636 L 259.087 43.4055 L 258.009 42.8474 L 255.442 42.2894 L 252.473 41.7313 L 250.07 41.1732 L 248.861 40.6152 L 249.036 40.0571 L 250.392 39.499 L 252.462 38.9409 L 254.702 38.3829 L 256.65 37.8248 L 258.035 37.2667 L 258.804 36.7087 L 259.073 36.1506 L 259.048 35.5925 L 258.933 35.0344 L 258.863 34.4764 L 258.885 33.9183 L 258.969 33.3602 L 259.053 32.8022 L 259.087 32.2441 L 259.056 31.686 L 258.99 31.128 L 258.937 30.5699 L 258.937 30.0118 L 258.994 29.4537 L 259.066 28.8957 L 259.08 28.3376 L 258.961 27.7795 L 258.666 27.2215 L 258.209 26.6634 L 257.669 26.1053 L 257.166 25.5472 L 256.83 24.9892 L 256.757 24.4311 L 256.974 23.873 L 257.431 23.315 L 258.01 22.7569 L 258.562 22.1988 L 258.95 21.6407 L 259.087 21.0827 L 258.959 20.5246 L 258.628 19.9665 L 258.205 19.4085 L 257.819 18.8504 L 257.574 18.2923 L 257.527 17.7343 L 257.675 17.1762 L 257.963 16.6181 L 258.312 16.06 L 258.639 15.502 L 258.886 14.9439 L 259.031 14.3858 L 259.084 13.8278 L 259.079 13.2697 L 259.053 12.7116 L 259.037 12.1535 L 259.04 11.5955 L 259.059 11.0374 L 259.078 10.4793 L 259.087 9.92126 " fill="none" stroke-width="0.4" stroke="#000000" />
</g>
<g>
<path d="M 204.971 54.5669 L 208.027 55.125 L 216.478 55.6831 L 228.372 56.2411 L 240.998 56.7992 L 251.561 57.3573 L 257.858 57.9154 L 258.786 58.4734 L 254.564 59.0315 L 246.616 59.5896 L 237.155 60.1476 L 228.61 60.7057 L 223.021 61.2638 L 221.581 61.8219 L 224.423 62.3799 L 230.681 62.938 L 238.8 63.4961 L 246.981 64.0541 L 253.643 64.6122 L 257.77 65.1703 L 259.087 65.7283 L 258.009 66.2864 L 255.442 66.8445 L 252.473 67.4026 L 250.07 67.9606 L 248.861 68.5187 L 249.036 69.0768 L 250.392 69.6348 L 252.462 70.1929 L 254.702 70.751 L 256.65 71.3091 L 258.035 71.8671 L 258.804 72.4252 L 259.073 72.9833 L 259.048 73.5413 L 258.933 74.0994 L 258.863 74.6575 L 258.885 75.2156 L 258.969 75.7736 L 259.053 76.3317 L 259.087 76.8898 L 259.056 77.4478 L 258.99 78.0059 L 258.937 78.564 L 258.937 79.122 L 258.994 79.6801 L 259.066 80.2382 L 259.08 80.7963 L 258.961 81.3543 L 258.666 81.9124 L 258.209 82.4705 L 257.669 83.0285 L 257.166 83.5866 L 256.83 84.1447 L 256.757 84.7028 L 256.974 85.2608 L 257.431 85.8189 L 258.01 86.377 L 258.562 86.935 L 258.95 87.4931 L 259.087 88.0512 L 258.959 88.6093 L 258.628 89.1673 L 258.205 89.7254 L 257.819 90.2835 L 257.574 90.8415 L 257.527 91.3996 L 257.675 91.9577 L 257.963 92.5157 L 258.312 93.0738 L 258.639 93.6319 L 258.886 94.19 L 259.031 94.748 L 259.084 95.3061 L 259.079 95.8642 L 259.053 96.4222 L 259.037 96.9803 L 259.04 97.5384 L 259.059 98.0965 L 259.078 98.6545 L 259.087 99.2126 " fill="none" stroke-width="0.4" stroke="#000000" />
</g>
</g>
</g>
<g>
<path d="M 61.5634 18.8504 L 87.7194 18.8504 " fill="none" stroke-width="0.2" stroke="#000000" />
<g>
<path d="M 87.7194 18.8504 L 83.7509 19.2076 L 79.7824 19.7433 L 75.8139 20.6362 L 79.7824 18.8504 L 75.8139 17.0646 L 79.7824 17.9575 L 83.7509 18.4932 L 87.7194 18.8504 " fill="none" stroke-width="0.2" stroke="#000000" />
</g>
<path d="M 61.5634 27.7795 L 87.7194 27.7795 " fill="none" stroke-width="0.2" stroke="#000000" />
<g>
<path d="M 87.7194 27.7795 L 83.7509 28.1367 L 79.7824 28.6724 L 75.8139 29.5654 L 79.7824 27.7795 L 75.8139 25.9937 L 79.7824 26.8866 L 83.7509 27.4224 L 87.7194 27.7795 " fill="none" stroke-width="0.2" stroke="#000000" />
</g>
<path d="M 61.5634 36.7087 L 87.7194 36.7087 " fill="none" stroke-width="0.2" stroke="#000000" />
<g>
<path d="M 87.7194 36.7087 L 83.7509 37.0658 L 79.7824 37.6016 L 75.8139 38.4945 L 79.7824 36.7087 L 75.8139 34.9228 L 79.7824 35.8157 L 83.7509 36.3515 L 87.7194 36.7087 " fill="none" stroke-width="0.2" stroke="#000000" />
</g>
<path d="M 61.5634 45.6378 L 87.7194 45.6378 " fill="none" stroke-width="0.2" stroke="#000000" />
<g>
<path d="M 87.7194 45.6378 L 83.7509 45.995 L 79.7824 46.5307 L 75.8139 47.4236 L 79.7824 45.6378 L 75.8139 43.852 L 79.7824 44.7449 L 83.7509 45.2806 L 87.7194 45.6378 " fill="none" stroke-width="0.2" stroke="#000000" />
</g>
<path d="M 61.5634 54.5669 L 87.7194 54.5669 " fill="none" stroke-width="0.2" stroke="#000000" />
<g>
<path d="M 87.7194 54.5669 L 83.7509 54.9241 L 79.7824 55.4598 L 75.8139 56.3528 L 79.7824 54.5669 L 75.8139 52.7811 L 79.7824 53.674 L 83.7509 54.2098 L 87.7194 54.5669 " fill="none" stroke-width="0.2" stroke="#000000" />
</g>
<path d="M 61.5634 63.4961 L 87.7194 63.4961 " fill="none" stroke-width="0.2" stroke="#000000" />
<g>
<path d="M 87.7194 63.4961 L 83.7509 63.8532 L 79.7824 64.389 L 75.8139 65.2819 L 79.7824 63.4961 L 75.8139 61.7102 L 79.7824 62.6031 L 83.7509 63.1389 L 87.7194 63.4961 " fill="none" stroke-width="0.2" stroke="#000000" />
</g>
<path d="M 61.5634 72.4252 L 87.7194 72.4252 " fill="none" stroke-width="0.2" stroke="#000000" />
<g>
<path d="M 87.7194 72.4252 L 83.7509 72.7824 L 79.7824 73.3181 L 75.8139 74.211 L 79.7824 72.4252 L 75.8139 70.6394 L 79.7824 71.5323 L 83.7509 72.068 L 87.7194 72.4252 " fill="none" stroke-width="0.2" stroke="#000000" />
</g>
<path d="M 61.5634 81.3543 L 87.7194 81.3543 " fill="none" stroke-width="0.2" stroke="#000000" />
<g>
<path d="M 87.7194 81.3543 L 83.7509 81.7115 L 79.7824 82.2472 L 75.8139 83.1402 L 79.7824 81.3543 L 75.8139 79.5685 L 79.7824 80.4614 L 83.7509 80.9972 L 87.7194 81.3543 " fill="none" stroke-width="0.2" stroke="#000000" />
</g>
<path d="M 61.5634 90.2835 L 87.7194 90.2835 " fill="none" stroke-width="0.2" stroke="#000000" />
<g>
<path d="M 87.7194 90.2835 L 83.7509 90.6406 L 79.7824 91.1764 L 75.8139 92.0693 L 79.7824 90.2835 L 75.8139 88.4976 L 79.7824 89.3906 L 83.7509 89.9263 L 87.7194 90.2835 " fill="none" stroke-width="0.2" stroke="#000000" />
</g>
</g>
<g>
<path d="M 178.815 18.8504 L 204.971 18.8504 " fill="none" stroke-width="0.2" stroke="#000000" />
<g>
<path d="M 204.971 18.8504 L 201.002 19.2076 L 197.034 19.7433 L 193.065 20.6362 L 197.034 18.8504 L 193.065 17.0646 L 197.034 17.9575 L 201.002 18.4932 L 204.971 18.8504 " fill="none" stroke-width="0.2" stroke="#000000" />
</g>
<path d="M 178.815 27.7795 L 204.971 27.7795 " fill="none" stroke-width="0.2" stroke="#000000" />
<g>
<path d="M 204.971 27.7795 L 201.002 28.1367 L 197.034 28.6724 L 193.065 29.5654 L 197.034 27.7795 L 193.065 25.9937 L 197.034 26.8866 L 201.002 27.4224 L 204.971 27.7795 " fill="none" stroke-width="0.2" stroke="#000000" />
</g>
<path d="M 178.815 36.7087 L 204.971 36.7087 " fill="none" stroke-width="0.2" stroke="#000000" />
<g>
<path d="M 204.971 36.7087 L 201.002 37.0658 L 197.034 37.6016 L 193.065 38.4945 L 197.034 36.7087 L 193.065 34.9228 L 197.034 35.8157 L 201.002 36.3515 L 204.971 36.7087 " fill="none" stroke-width="0.2" stroke="#000000" />
</g>
<path d="M 178.815 45.6378 L 204.971 45.6378 " fill="none" stroke-width="0.2" stroke="#000000" />
<g>
<path d="M 204.971 45.6378 L 201.002 45.995 L 197.034 46.5307 L 193.065 47.4236 L 197.034 45.6378 L 193.065 43.852 L 197.034 44.7449 L 201.002 45.2806 L 204.971 45.6378 " fill="none" stroke-width="0.2" stroke="#000000" />
</g>
<path d="M 178.815 54.5669 L 204.971 54.5669 " fill="none" stroke-width="0.2" stroke="#000000" />
<g>
<path d="M 204.971 54.5669 L 201.002 54.9241 L 197.034 55.4598 L 193.065 56.3528 L 197.034 54.5669 L 193.065 52.7811 L 197.034 53.674 L 201.002 54.2098 L 204.971 54.5669 " fill="none" stroke-width="0.2" stroke="#000000" />
</g>
<path d="M 178.815 63.4961 L 204.971 63.4961 " fill="none" stroke-width="0.2" stroke="#000000" />
<g>
<path d="M 204.971 63.4961 L 201.002 63.8532 L 197.034 64.389 L 193.065 65.2819 L 197.034 63.4961 L 193.065 61.7102 L 197.034 62.6031 L 201.002 63.1389 L 204.971 63.4961 " fill="none" stroke-width="0.2" stroke="#000000" />
</g>
<path d="M 178.815 72.4252 L 204.971 72.4252 " fill="none" stroke-width="0.2" stroke="#000000" />
<g>
<path d="M 204.971 72.4252 L 201.002 72.7824 L 197.034 73.3181 L 193.065 74.211 L 197.034 72.4252 L 193.065 70.6394 L 197.034 71.5323 L 201.002 72.068 L 204.971 72.4252 " fill="none" stroke-width="0.2" stroke="#000000" />
</g>
<path d="M 178.815 81.3543 L 204.971 81.3543 " fill="none" stroke-width="0.2" stroke="#000000" />
<g>
<path d="M 204.971 81.3543 L 201.002 81.7115 L 197.034 82.2472 L 193.065 83.1402 L 197.034 81.3543 L 193.065 79.5685 L 197.034 80.4614 L 201.002 80.9972 L 204.971 81.3543 " fill="none" stroke-width="0.2" stroke="#000000" />
</g>
<path d="M 178.815 90.2835 L 204.971 90.2835 " fill="none" stroke-width="0.2" stroke="#000000" />
<g>
<path d="M 204.971 90.2835 L 201.002 90.6406 L 197.034 91.1764 L 193.065 92.0693 L 197.034 90.2835 L 193.065 88.4976 L 197.034 89.3906 L 201.002 89.9263 L 204.971 90.2835 " fill="none" stroke-width="0.2" stroke="#000000" />
</g>
</g>
</g>
<g>
<g>
<path d="M 87.7194 119.055 L 87.7194 159.236 " fill="none" stroke-width="0.5" stroke="#000000" />
<path d="M 87.7194 168.165 L 87.7194 208.346 " fill="none" stroke-width="0.5" stroke="#000000" />
<path d="M 141.835 119.055 L 141.835 208.346 " fill="none" stroke-width="0.5" stroke="#000000" />
<path d="M 204.971 119.055 L 204.971 145.843 " fill="none" stroke-width="0.5" stroke="#000000" />
<path d="M 204.971 154.772 L 204.971 172.63 " fill="none" stroke-width="0.5" stroke="#000000" />
<path d="M 204.971 181.559 L 204.971 208.346 " fill="none" stroke-width="0.5" stroke="#000000" />
<path d="M 259.087 119.055 L 259.087 208.346 " fill="none" stroke-width="0.5" stroke="#000000" />
</g>
<path d="M 141.835 159.236 L 105.758 159.236 L 105.758 168.165 L 141.835 168.165 " fill="none" stroke-width="0.4" stroke="#000000" />
<path d="M 259.087 145.843 L 223.009 145.843 L 223.009 154.772 L 259.087 154.772 " fill="none" stroke-width="0.4" stroke="#000000" />
<path d="M 259.087 181.559 L 223.009 181.559 L 223.009 172.63 L 259.087 172.63 " fill="none" stroke-width="0.4" stroke="#000000" />
<g>
<path d="M 61.5634 127.984 L 87.7194 127.984 " fill="none" stroke-width="0.2" stroke="#000000" />
<g>
<path d="M 87.7194 127.984 L 83.7509 128.341 L 79.7824 128.877 L 75.8139 129.77 L 79.7824 127.984 L 75.8139 126.198 L 79.7824 127.091 L 83.7509 127.627 L 87.7194 127.984 " fill="none" stroke-width="0.2" stroke="#000000" />
</g>
<path d="M 61.5634 136.913 L 87.7194 136.913 " fill="none" stroke-width="0.2" stroke="#000000" />
<g>
<path d="M 87.7194 136.913 L 83.7509 137.271 L 79.7824 137.806 L 75.8139 138.699 L 79.7824 136.913 L 75.8139 135.128 L 79.7824 136.02 L 83.7509 136.556 L 87.7194 136.913 " fill="none" stroke-width="0.2" stroke="#000000" />
</g>
<path d="M 61.5634 145.843 L 87.7194 145.843 " fill="none" stroke-width="0.2" stroke="#000000" />
<g>
<path d="M 87.7194 145.843 L 83.7509 146.2 L 79.7824 146.735 L 75.8139 147.628 L 79.7824 145.843 L 75.8139 144.057 L 79.7824 144.95 L 83.7509 145.485 L 87.7194 145.843 " fill="none" stroke-width="0.2" stroke="#000000" />
</g>
<path d="M 61.5634 154.772 L 87.7194 154.772 " fill="none" stroke-width="0.2" stroke="#000000" />
<g>
<path d="M 87.7194 154.772 L 83.7509 155.129 L 79.7824 155.665 L 75.8139 156.557 L 79.7824 154.772 L 75.8139 152.986 L 79.7824 153.879 L 83.7509 154.414 L 87.7194 154.772 " fill="none" stroke-width="0.2" stroke="#000000" />
</g>
<path d="M 61.5634 163.701 L 87.7194 163.701 " fill="none" stroke-width="0.2" stroke="#000000" />
<g>
<path d="M 87.7194 163.701 L 83.7509 164.058 L 79.7824 164.594 L 75.8139 165.487 L 79.7824 163.701 L 75.8139 161.915 L 79.7824 162.808 L 83.7509 163.344 L 87.7194 163.701 " fill="none" stroke-width="0.2" stroke="#000000" />
</g>
<path d="M 61.5634 172.63 L 87.7194 172.63 " fill="none" stroke-width="0.2" stroke="#000000" />
<g>
<path d="M 87.7194 172.63 L 83.7509 172.987 L 79.7824 173.523 L 75.8139 174.416 L 79.7824 172.63 L 75.8139 170.844 L 79.7824 171.737 L 83.7509 172.273 L 87.7194 172.63 " fill="none" stroke-width="0.2" stroke="#000000" />
</g>
<path d="M 61.5634 181.559 L 87.7194 181.559 " fill="none" stroke-width="0.2" stroke="#000000" />
<g>
<path d="M 87.7194 181.559 L 83.7509 181.916 L 79.7824 182.452 L 75.8139 183.345 L 79.7824 181.559 L 75.8139 179.773 L 79.7824 180.666 L 83.7509 181.202 L 87.7194 181.559 " fill="none" stroke-width="0.2" stroke="#000000" />
</g>
<path d="M 61.5634 190.488 L 87.7194 190.488 " fill="none" stroke-width="0.2" stroke="#000000" />
<g>
<path d="M 87.7194 190.488 L 83.7509 190.845 L 79.7824 191.381 L 75.8139 192.274 L 79.7824 190.488 L 75.8139 188.702 L 79.7824 189.595 L 83.7509 190.131 L 87.7194 190.488 " fill="none" stroke-width="0.2" stroke="#000000" />
</g>
<path d="M 61.5634 199.417 L 87.7194 199.417 " fill="none" stroke-width="0.2" stroke="#000000" />
<g>
<path d="M 87.7194 199.417 L 83.7509 199.774 L 79.7824 200.31 L 75.8139 201.203 L 79.7824 199.417 L 75.8139 197.631 L 79.7824 198.524 L 83.7509 199.06 L 87.7194 199.417 " fill="none" stroke-width="0.2" stroke="#000000" />
</g>
</g>
<g>
<path d="M 178.815 127.984 L 204.971 127.984 " fill="none" stroke-width="0.2" stroke="#000000" />
<g>
<path d="M 204.971 127.984 L 201.002 128.341 L 197.034 128.877 L 193.065 129.77 L 197.034 127.984 L 193.065 126.198 L 197.034 127.091 L 201.002 127.627 L 204.971 127.984 " fill="none" stroke-width="0.2" stroke="#000000" />
</g>
<path d="M 178.815 136.913 L 204.971 136.913 " fill="none" stroke-width="0.2" stroke="#000000" />
<g>
<path d="M 204.971 136.913 L 201.002 137.271 L 197.034 137.806 L 193.065 138.699 L 197.034 136.913 L 193.065 135.128 L 197.034 136.02 L 201.002 136.556 L 204.971 136.913 " fill="none" stroke-width="0.2" stroke="#000000" />
</g>
<path d="M 178.815 145.843 L 204.971 145.843 " fill="none" stroke-width="0.2" stroke="#000000" />
<g>
<path d="M 204.971 145.843 L 201.002 146.2 L 197.034 146.735 L 193.065 147.628 L 197.034 145.843 L 193.065 144.057 L 197.034 144.95 L 201.002 145.485 L 204.971 145.843 " fill="none" stroke-width="0.2" stroke="#000000" />
</g>
<path d="M 178.815 154.772 L 204.971 154.772 " fill="none" stroke-width="0.2" stroke="#000000" />
<g>
<path d="M 204.971 154.772 L 201.002 155.129 L 197.034 155.665 L 193.065 156.557 L 197.034 154.772 L 193.065 152.986 L 197.034 153.879 L 201.002 154.414 L 204.971 154.772 " fill="none" stroke-width="0.2" stroke="#000000" />
</g>
<path d="M 178.815 163.701 L 204.971 163.701 " fill="none" stroke-width="0.2" stroke="#000000" />
<g>
<path d="M 204.971 163.701 L 201.002 164.058 L 197.034 164.594 L 193.065 165.487 L 197.034 163.701 L 193.065 161.915 L 197.034 162.808 L 201.002 163.344 L 204.971 163.701 " fill="none" stroke-width="0.2" stroke="#000000" />
</g>
<path d="M 178.815 172.63 L 204.971 172.63 " fill="none" stroke-width="0.2" stroke="#000000" />
<g>
<path d="M 204.971 172.63 L 201.002 172.987 L 197.034 173.523 L 193.065 174.416 L 197.034 172.63 L 193.065 170.844 L 197.034 171.737 L 201.002 172.273 L 204.971 172.63 " fill="none" stroke-width="0.2" stroke="#000000" />
</g>
<path d="M 178.815 181.559 L 204.971 181.559 " fill="none" stroke-width="0.2" stroke="#000000" />
<g>
<path d="M 204.971 181.559 L 201.002 181.916 L 197.034 182.452 L 193.065 183.345 L 197.034 181.559 L 193.065 179.773 L 197.034 180.666 L 201.002 181.202 L 204.971 181.559 " fill="none" stroke-width="0.2" stroke="#000000" />
</g>
<path d="M 178.815 190.488 L 204.971 190.488 " fill="none" stroke-width="0.2" stroke="#000000" />
<g>
<path d="M 204.971 190.488 L 201.002 190.845 L 197.034 191.381 L 193.065 192.274 L 197.034 190.488 L 193.065 188.702 L 197.034 189.595 L 201.002 190.131 L 204.971 190.488 " fill="none" stroke-width="0.2" stroke="#000000" />
</g>
<path d="M 178.815 199.417 L 204.971 199.417 " fill="none" stroke-width="0.2" stroke="#000000" />
<g>
<path d="M 204.971 199.417 L 201.002 199.774 L 197.034 200.31 L 193.065 201.203 L 197.034 199.417 L 193.065 197.631 L 197.034 198.524 L 201.002 199.06 L 204.971 199.417 " fill="none" stroke-width="0.2" stroke="#000000" />
</g>
</g>
</g>
<text x="104.314961" y="-115.086614" transform="scale(1, -1)" text-anchor="start" fill="#000000" font-size="8.000000" font-family="'Times New Roman', Times, 'Liberation Serif', 'Nimbus Roman', serif" font-style="normal" font-weight="normal">a)</text>
<text x="221.385827" y="-119.055118" transform="scale(1, -1)" text-anchor="start" fill="#000000" font-size="8.000000" font-family="'Times New Roman', Times, 'Liberation Serif', 'Nimbus Roman', serif" font-style="normal" font-weight="normal">b)</text>
<text x="104.314961" y="-3.968504" transform="scale(1, -1)" text-anchor="start" fill="#000000" font-size="8.000000" font-family="'Times New Roman', Times, 'Liberation Serif', 'Nimbus Roman', serif" font-style="normal" font-weight="normal">c)</text>
<text x="221.385827" y="-3.968504" transform="scale(1, -1)" text-anchor="start" fill="#000000" font-size="8.000000" font-family="'Times New Roman', Times, 'Liberation Serif', 'Nimbus Roman', serif" font-style="normal" font-weight="normal">d)</text>
</g>
</svg>
