<?xml version="1.0" encoding="UTF-8" standalone="no"?>
<svg width="334.488189pt" height="133.228346pt" viewBox="0 -133.228346 334.488189 133.228346" xmlns="http://www.w3.org/2000/svg">
<g transform="scale(1, -1)">
<path d="M 90.7087 38.2677 L 90.7087 128.976 " fill="none" stroke-width="0.2" stroke="#000000" />
<g>
<path d="M 90.7087 128.976 L 90.1757 126.312 L 89.3764 123.647 L 88.0441 120.983 L 90.7087 123.647 L 93.3732 120.983 L 92.0409 123.647 L 91.2416 126.312 L 90.7087 128.976 " fill="none" stroke-width="0.2" stroke="#000000" />
</g>
<g>
<circle cx="126.496063" cy="29.055118" r="0.750000" fill="#000000" />
<circle cx="137.125984" cy="29.055118" r="0.750000" fill="#000000" />
<path d="M 124.724 29.0551 L 126.496 29.0551 L 136.683 37.2047 " fill="none" stroke-width="0.2" stroke="#000000" />
<path d="M 137.126 29.0551 L 138.898 29.0551 " fill="none" stroke-width="0.2" stroke="#000000" />
<path d="M 110.551 46.063 L 124.724 46.063 " fill="none" stroke-width="0.5" stroke="#000000" />
<path d="M 110.551 48.8976 L 124.724 48.8976 " fill="none" stroke-width="0.5" stroke="#000000" />
<path d="M 110.551 51.7323 L 124.724 51.7323 " fill="none" stroke-width="0.5" stroke="#000000" />
<path d="M 110.551 54.5669 L 124.724 54.5669 " fill="none" stroke-width="0.5" stroke="#000000" />
<path d="M 110.551 57.4016 L 124.724 57.4016 " fill="none" stroke-width="0.5" stroke="#000000" />
<path d="M 110.551 60.2362 L 124.724 60.2362 " fill="none" stroke-width="0.5" stroke="#000000" />
<path d="M 110.551 63.0709 L 124.724 63.0709 " fill="none" stroke-width="0.5" stroke="#000000" />
<path d="M 110.551 65.9055 L 124.724 65.9055 " fill="none" stroke-width="0.5" stroke="#000000" />
<path d="M 110.551 68.7402 L 124.724 68.7402 " fill="none" stroke-width="0.5" stroke="#000000" />
<path d="M 110.551 71.5748 L 124.724 71.5748 " fill="none" stroke-width="0.5" stroke="#000000" />
<path d="M 110.551 74.4094 L 124.724 74.4094 " fill="none" stroke-width="0.5" stroke="#000000" />
<path d="M 110.551 77.2441 L 124.724 77.2441 " fill="none" stroke-width="0.5" stroke="#000000" />
<path d="M 110.551 80.0787 L 124.724 80.0787 " fill="none" stroke-width="0.5" stroke="#000000" />
<path d="M 110.551 82.9134 L 124.724 82.9134 " fill="none" stroke-width="0.5" stroke="#000000" />
<path d="M 110.551 85.748 L 124.724 85.748 " fill="none" stroke-width="0.5" stroke="#000000" />
<path d="M 110.551 88.5827 L 124.724 88.5827 " fill="none" stroke-width="0.5" stroke="#000000" />
<path d="M 110.551 91.4173 L 124.724 91.4173 " fill="none" stroke-width="0.5" stroke="#000000" />
<path d="M 110.551 94.252 L 124.724 94.252 " fill="none" stroke-width="0.5" stroke="#000000" />
<path d="M 110.551 97.0866 L 124.724 97.0866 " fill="none" stroke-width="0.5" stroke="#000000" />
<path d="M 110.551 99.9213 L 124.724 99.9213 " fill="none" stroke-width="0.5" stroke="#000000" />
<path d="M 110.551 102.756 L 124.724 102.756 " fill="none" stroke-width="0.5" stroke="#000000" />
<path d="M 110.551 105.591 L 124.724 105.591 " fill="none" stroke-width="0.5" stroke="#000000" />
<path d="M 110.551 108.425 L 124.724 108.425 " fill="none" stroke-width="0.5" stroke="#000000" />
<path d="M 138.898 46.063 L 153.071 46.063 " fill="none" stroke-width="0.5" stroke="#000000" />
<path d="M 138.898 48.8976 L 153.071 48.8976 " fill="none" stroke-width="0.5" stroke="#000000" />
<path d="M 138.898 51.7323 L 153.071 51.7323 " fill="none" stroke-width="0.5" stroke="#000000" />
<path d="M 138.898 54.5669 L 153.071 54.5669 " fill="none" stroke-width="0.5" stroke="#000000" />
<path d="M 138.898 57.4016 L 153.071 57.4016 " fill="none" stroke-width="0.5" stroke="#000000" />
<path d="M 138.898 60.2362 L 153.071 60.2362 " fill="none" stroke-width="0.5" stroke="#000000" />
<path d="M 138.898 63.0709 L 153.071 63.0709 " fill="none" stroke-width="0.5" stroke="#000000" />
<path d="M 138.898 65.9055 L 153.071 65.9055 " fill="none" stroke-width="0.5" stroke="#000000" />
<path d="M 138.898 68.7402 L 153.071 68.7402 " fill="none" stroke-width="0.5" stroke="#000000" />
<path d="M 138.898 71.5748 L 153.071 71.5748 " fill="none" stroke-width="0.5" stroke="#000000" />
<path d="M 138.898 74.4094 L 153.071 74.4094 " fill="none" stroke-width="0.5" stroke="#000000" />
<path d="M 138.898 77.2441 L 153.071 77.2441 " fill="none" stroke-width="0.5" stroke="#000000" />
<path d="M 138.898 80.0787 L 153.071 80.0787 " fill="none" stroke-width="0.5" stroke="#000000" />
<path d="M 138.898 82.9134 L 153.071 82.9134 " fill="none" stroke-width="0.5" stroke="#000000" />
<path d="M 138.898 85.748 L 153.071 85.748 " fill="none" stroke-width="0.5" stroke="#000000" />
<path d="M 138.898 88.5827 L 153.071 88.5827 " fill="none" stroke-width="0.5" stroke="#000000" />
<path d="M 138.898 91.4173 L 153.071 91.4173 " fill="none" stroke-width="0.5" stroke="#000000" />
<path d="M 138.898 94.252 L 153.071 94.252 " fill="none" stroke-width="0.5" stroke="#000000" />
<path d="M 138.898 97.0866 L 153.071 97.0866 " fill="none" stroke-width="0.5" stroke="#000000" />
<path d="M 138.898 99.9213 L 153.071 99.9213 " fill="none" stroke-width="0.5" stroke="#000000" />
<path d="M 138.898 102.756 L 153.071 102.756 " fill="none" stroke-width="0.5" stroke="#000000" />
<path d="M 138.898 105.591 L 153.071 105.591 " fill="none" stroke-width="0.5" stroke="#000000" />
<path d="M 138.898 108.425 L 153.071 108.425 " fill="none" stroke-width="0.5" stroke="#000000" />
<circle cx="117.637795" cy="46.062992" r="0.750000" fill="#000000" />
<circle cx="117.637795" cy="48.897638" r="0.750000" fill="#000000" />
<circle cx="117.637795" cy="51.732283" r="0.750000" fill="#000000" />
<circle cx="117.637795" cy="54.566929" r="0.750000" fill="#000000" />
<circle cx="117.637795" cy="57.401575" r="0.750000" fill="#000000" />
<circle cx="117.637795" cy="60.236220" r="0.750000" fill="#000000" />
<circle cx="117.637795" cy="63.070866" r="0.750000" fill="#000000" />
<circle cx="117.637795" cy="65.905512" r="0.750000" fill="#000000" />
<circle cx="117.637795" cy="68.740157" r="0.750000" fill="#000000" />
<circle cx="117.637795" cy="71.574803" r="0.750000" fill="#000000" />
<circle cx="117.637795" cy="74.409449" r="0.750000" fill="#000000" />
<circle cx="117.637795" cy="77.244094" r="0.750000" fill="#000000" />
<circle cx="117.637795" cy="80.078740" r="0.750000" fill="#000000" />
<circle cx="117.637795" cy="82.913386" r="0.750000" fill="#000000" />
<circle cx="117.637795" cy="85.748031" r="0.750000" fill="#000000" />
<circle cx="117.637795" cy="88.582677" r="0.750000" fill="#000000" />
<circle cx="145.984252" cy="46.062992" r="0.750000" fill="#000000" />
<circle cx="145.984252" cy="48.897638" r="0.750000" fill="#000000" />
<circle cx="145.984252" cy="51.732283" r="0.750000" fill="#000000" />
<circle cx="145.984252" cy="54.566929" r="0.750000" fill="#000000" />
<circle cx="145.984252" cy="57.401575" r="0.750000" fill="#000000" />
<circle cx="145.984252" cy="60.236220" r="0.750000" fill="#000000" />
<circle cx="145.984252" cy="63.070866" r="0.750000" fill="#000000" />
<circle cx="145.984252" cy="65.905512" r="0.750000" fill="#000000" />
<circle cx="145.984252" cy="68.740157" r="0.750000" fill="#000000" />
<circle cx="145.984252" cy="71.574803" r="0.750000" fill="#000000" />
<defs><pattern id="mgpat_2_000000" patternUnits="userSpaceOnUse" width="4.000000" height="4.000000" patternTransform="rotate(-45.000000)"><line x1="0" y1="0" x2="4.000000" y2="0" stroke="#000000" stroke-width="0.500000"/></pattern></defs>
<path d="M 110.551 21.9685 L 124.724 21.9685 L 124.724 29.0551 L 110.551 29.0551 Z " fill="url(#mgpat_2_000000)" stroke-width="0.5" stroke="#000000" />
<path d="M 138.898 21.9685 L 153.071 21.9685 L 153.071 29.0551 L 138.898 29.0551 Z " fill="url(#mgpat_2_000000)" stroke-width="0.5" stroke="#000000" />
<path d="M 110.551 21.9685 L 124.724 21.9685 L 124.724 29.0551 L 110.551 29.0551 Z " fill="none" stroke-width="0.6" stroke="#000000" />
<path d="M 138.898 21.9685 L 153.071 21.9685 L 153.071 29.0551 L 138.898 29.0551 Z " fill="none" stroke-width="0.6" stroke="#000000" />
<path d="M 96.378 117.638 L 110.551 117.638 L 110.551 43.937 " fill="none" stroke-width="0.6" stroke="#000000" />
<path d="M 124.724 43.937 L 124.724 117.638 L 138.898 117.638 L 138.898 43.937 " fill="none" stroke-width="0.6" stroke="#000000" />
<path d="M 153.071 43.937 L 153.071 117.638 L 167.244 117.638 " fill="none" stroke-width="0.6" stroke="#000000" />
<path d="M 96.378 88.5827 L 103.465 88.5827 " fill="none" stroke-width="0.5" stroke="#000000" stroke-dasharray="2,1.6" />
<path d="M 108.425 88.5827 L 110.551 88.5827 " fill="none" stroke-width="0.5" stroke="#000000" stroke-dasharray="2,1.6" />
<path d="M 153.071 71.5748 L 154.417 71.5748 " fill="none" stroke-width="0.5" stroke="#000000" stroke-dasharray="2,1.6" />
<path d="M 160.157 71.5748 L 167.244 71.5748 " fill="none" stroke-width="0.5" stroke="#000000" stroke-dasharray="2,1.6" />
<path d="M 99.2126 88.5827 L 99.2126 99.4783 " fill="none" stroke-width="0.5" stroke="#000000" />
<path d="M 99.2126 106.742 L 99.2126 117.638 " fill="none" stroke-width="0.5" stroke="#000000" />
<g>
<path d="M 99.2126 117.638 L 99 116.15 L 98.6811 114.661 L 98.1496 113.173 L 99.2126 114.661 L 100.276 113.173 L 99.7441 114.661 L 99.4252 116.15 L 99.2126 117.638 " fill="none" stroke-width="0.5" stroke="#000000" />
</g>
<g>
<path d="M 99.2126 88.5827 L 99.4252 90.0709 L 99.7441 91.5591 L 100.276 93.0472 L 99.2126 91.5591 L 98.1496 93.0472 L 98.6811 91.5591 L 99 90.0709 L 99.2126 88.5827 " fill="none" stroke-width="0.5" stroke="#000000" />
</g>
<path d="M 163.701 71.5748 L 163.701 90 " fill="none" stroke-width="0.5" stroke="#000000" />
<path d="M 163.701 99.2126 L 163.701 117.638 " fill="none" stroke-width="0.5" stroke="#000000" />
<g>
<path d="M 163.701 117.638 L 163.488 116.15 L 163.169 114.661 L 162.638 113.173 L 163.701 114.661 L 164.764 113.173 L 164.232 114.661 L 163.913 116.15 L 163.701 117.638 " fill="none" stroke-width="0.5" stroke="#000000" />
</g>
<g>
<path d="M 163.701 71.5748 L 163.913 73.063 L 164.232 74.5512 L 164.764 76.0394 L 163.701 74.5512 L 162.638 76.0394 L 163.169 74.5512 L 163.488 73.063 L 163.701 71.5748 " fill="none" stroke-width="0.5" stroke="#000000" />
</g>
<text x="111.968504" y="-14.881890" transform="scale(1, -1)" text-anchor="start" fill="#000000" font-size="8.000000" font-family="'Times New Roman', Times, 'Liberation Serif', 'Nimbus Roman', serif" font-style="normal" font-weight="normal">metal A</text>
<text x="140.314961" y="-14.881890" transform="scale(1, -1)" text-anchor="start" fill="#000000" font-size="8.000000" font-family="'Times New Roman', Times, 'Liberation Serif', 'Nimbus Roman', serif" font-style="normal" font-weight="normal">metal B</text>
<text x="103.464567" y="-86.456693" transform="scale(1, -1)" text-anchor="start" fill="#000000" font-size="8.000000" font-family="'Times New Roman', Times, 'Liberation Serif', 'Nimbus Roman', serif" font-style="italic" font-weight="normal">E</text>
<text x="108.352567" y="-85.336693" transform="scale(1, -1)" text-anchor="start" fill="#000000" font-size="5.600000" font-family="'Times New Roman', Times, 'Liberation Serif', 'Nimbus Roman', serif" font-style="italic" font-weight="normal">F</text>
<text x="111.774167" y="-85.336693" transform="scale(1, -1)" text-anchor="start" fill="#000000" font-size="3.920000" font-family="'Times New Roman', Times, 'Liberation Serif', 'Nimbus Roman', serif" font-style="italic" font-weight="normal">A</text>
<text x="114.169287" y="-86.456693" transform="scale(1, -1)" text-anchor="start" fill="#000000" font-size="8.000000" font-family="'Times New Roman', Times, 'Liberation Serif', 'Nimbus Roman', serif" font-style="italic" font-weight="normal"> </text>
<text x="96.732283" y="-100.629921" transform="scale(1, -1)" text-anchor="start" fill="#000000" font-size="8.000000" font-family="'Times New Roman', Times, 'Liberation Serif', 'Nimbus Roman', serif" font-style="italic" font-weight="normal">W</text>
<text x="103.396283" y="-99.509921" transform="scale(1, -1)" text-anchor="start" fill="#000000" font-size="5.600000" font-family="'Times New Roman', Times, 'Liberation Serif', 'Nimbus Roman', serif" font-style="italic" font-weight="normal">A</text>
<text x="106.817883" y="-100.629921" transform="scale(1, -1)" text-anchor="start" fill="#000000" font-size="8.000000" font-family="'Times New Roman', Times, 'Liberation Serif', 'Nimbus Roman', serif" font-style="italic" font-weight="normal"> </text>
<text x="161.574803" y="-92.125984" transform="scale(1, -1)" text-anchor="start" fill="#000000" font-size="8.000000" font-family="'Times New Roman', Times, 'Liberation Serif', 'Nimbus Roman', serif" font-style="italic" font-weight="normal">W</text>
<text x="168.238803" y="-91.005984" transform="scale(1, -1)" text-anchor="start" fill="#000000" font-size="5.600000" font-family="'Times New Roman', Times, 'Liberation Serif', 'Nimbus Roman', serif" font-style="italic" font-weight="normal">B</text>
<text x="171.660403" y="-92.125984" transform="scale(1, -1)" text-anchor="start" fill="#000000" font-size="8.000000" font-family="'Times New Roman', Times, 'Liberation Serif', 'Nimbus Roman', serif" font-style="italic" font-weight="normal"> </text>
<text x="154.488189" y="-69.448819" transform="scale(1, -1)" text-anchor="start" fill="#000000" font-size="8.000000" font-family="'Times New Roman', Times, 'Liberation Serif', 'Nimbus Roman', serif" font-style="italic" font-weight="normal">E</text>
<text x="159.376189" y="-68.328819" transform="scale(1, -1)" text-anchor="start" fill="#000000" font-size="5.600000" font-family="'Times New Roman', Times, 'Liberation Serif', 'Nimbus Roman', serif" font-style="italic" font-weight="normal">F</text>
<text x="162.797789" y="-68.328819" transform="scale(1, -1)" text-anchor="start" fill="#000000" font-size="3.920000" font-family="'Times New Roman', Times, 'Liberation Serif', 'Nimbus Roman', serif" font-style="italic" font-weight="normal">B</text>
<text x="165.192909" y="-69.448819" transform="scale(1, -1)" text-anchor="start" fill="#000000" font-size="8.000000" font-family="'Times New Roman', Times, 'Liberation Serif', 'Nimbus Roman', serif" font-style="italic" font-weight="normal"> </text>
</g>
<g>
<circle cx="207.283465" cy="29.055118" r="0.750000" fill="#000000" />
<circle cx="217.913386" cy="29.055118" r="0.750000" fill="#000000" />
<path d="M 205.512 29.0551 L 207.283 29.0551 " fill="none" stroke-width="0.2" stroke="#000000" />
<path d="M 207.283 30.189 L 218.268 30.189 " fill="none" stroke-width="0.2" stroke="#000000" />
<path d="M 217.913 29.0551 L 219.685 29.0551 " fill="none" stroke-width="0.2" stroke="#000000" />
<path d="M 191.339 46.063 L 205.512 46.063 " fill="none" stroke-width="0.5" stroke="#000000" />
<path d="M 191.339 48.8976 L 205.512 48.8976 " fill="none" stroke-width="0.5" stroke="#000000" />
<path d="M 191.339 51.7323 L 205.512 51.7323 " fill="none" stroke-width="0.5" stroke="#000000" />
<path d="M 191.339 54.5669 L 205.512 54.5669 " fill="none" stroke-width="0.5" stroke="#000000" />
<path d="M 191.339 57.4016 L 205.512 57.4016 " fill="none" stroke-width="0.5" stroke="#000000" />
<path d="M 191.339 60.2362 L 205.512 60.2362 " fill="none" stroke-width="0.5" stroke="#000000" />
<path d="M 191.339 63.0709 L 205.512 63.0709 " fill="none" stroke-width="0.5" stroke="#000000" />
<path d="M 191.339 65.9055 L 205.512 65.9055 " fill="none" stroke-width="0.5" stroke="#000000" />
<path d="M 191.339 68.7402 L 205.512 68.7402 " fill="none" stroke-width="0.5" stroke="#000000" />
<path d="M 191.339 71.5748 L 205.512 71.5748 " fill="none" stroke-width="0.5" stroke="#000000" />
<path d="M 191.339 74.4094 L 205.512 74.4094 " fill="none" stroke-width="0.5" stroke="#000000" />
<path d="M 191.339 77.2441 L 205.512 77.2441 " fill="none" stroke-width="0.5" stroke="#000000" />
<path d="M 191.339 80.0787 L 205.512 80.0787 " fill="none" stroke-width="0.5" stroke="#000000" />
<path d="M 191.339 82.9134 L 205.512 82.9134 " fill="none" stroke-width="0.5" stroke="#000000" />
<path d="M 191.339 85.748 L 205.512 85.748 " fill="none" stroke-width="0.5" stroke="#000000" />
<path d="M 191.339 88.5827 L 205.512 88.5827 " fill="none" stroke-width="0.5" stroke="#000000" />
<path d="M 191.339 91.4173 L 205.512 91.4173 " fill="none" stroke-width="0.5" stroke="#000000" />
<path d="M 219.685 46.063 L 233.858 46.063 " fill="none" stroke-width="0.5" stroke="#000000" />
<path d="M 219.685 48.8976 L 233.858 48.8976 " fill="none" stroke-width="0.5" stroke="#000000" />
<path d="M 219.685 51.7323 L 233.858 51.7323 " fill="none" stroke-width="0.5" stroke="#000000" />
<path d="M 219.685 54.5669 L 233.858 54.5669 " fill="none" stroke-width="0.5" stroke="#000000" />
<path d="M 219.685 57.4016 L 233.858 57.4016 " fill="none" stroke-width="0.5" stroke="#000000" />
<path d="M 219.685 60.2362 L 233.858 60.2362 " fill="none" stroke-width="0.5" stroke="#000000" />
<path d="M 219.685 63.0709 L 233.858 63.0709 " fill="none" stroke-width="0.5" stroke="#000000" />
<path d="M 219.685 65.9055 L 233.858 65.9055 " fill="none" stroke-width="0.5" stroke="#000000" />
<path d="M 219.685 68.7402 L 233.858 68.7402 " fill="none" stroke-width="0.5" stroke="#000000" />
<path d="M 219.685 71.5748 L 233.858 71.5748 " fill="none" stroke-width="0.5" stroke="#000000" />
<path d="M 219.685 74.4094 L 233.858 74.4094 " fill="none" stroke-width="0.5" stroke="#000000" />
<path d="M 219.685 77.2441 L 233.858 77.2441 " fill="none" stroke-width="0.5" stroke="#000000" />
<path d="M 219.685 80.0787 L 233.858 80.0787 " fill="none" stroke-width="0.5" stroke="#000000" />
<path d="M 219.685 82.9134 L 233.858 82.9134 " fill="none" stroke-width="0.5" stroke="#000000" />
<path d="M 219.685 85.748 L 233.858 85.748 " fill="none" stroke-width="0.5" stroke="#000000" />
<path d="M 219.685 88.5827 L 233.858 88.5827 " fill="none" stroke-width="0.5" stroke="#000000" />
<path d="M 219.685 91.4173 L 233.858 91.4173 " fill="none" stroke-width="0.5" stroke="#000000" />
<path d="M 219.685 94.252 L 233.858 94.252 " fill="none" stroke-width="0.5" stroke="#000000" />
<path d="M 219.685 97.0866 L 233.858 97.0866 " fill="none" stroke-width="0.5" stroke="#000000" />
<path d="M 219.685 99.9213 L 233.858 99.9213 " fill="none" stroke-width="0.5" stroke="#000000" />
<path d="M 219.685 102.756 L 233.858 102.756 " fill="none" stroke-width="0.5" stroke="#000000" />
<path d="M 219.685 105.591 L 233.858 105.591 " fill="none" stroke-width="0.5" stroke="#000000" />
<path d="M 219.685 108.425 L 233.858 108.425 " fill="none" stroke-width="0.5" stroke="#000000" />
<circle cx="198.425197" cy="46.062992" r="0.750000" fill="#000000" />
<circle cx="198.425197" cy="48.897638" r="0.750000" fill="#000000" />
<circle cx="198.425197" cy="51.732283" r="0.750000" fill="#000000" />
<circle cx="198.425197" cy="54.566929" r="0.750000" fill="#000000" />
<circle cx="198.425197" cy="57.401575" r="0.750000" fill="#000000" />
<circle cx="198.425197" cy="60.236220" r="0.750000" fill="#000000" />
<circle cx="198.425197" cy="63.070866" r="0.750000" fill="#000000" />
<circle cx="198.425197" cy="65.905512" r="0.750000" fill="#000000" />
<circle cx="198.425197" cy="68.740157" r="0.750000" fill="#000000" />
<circle cx="198.425197" cy="71.574803" r="0.750000" fill="#000000" />
<circle cx="226.771654" cy="46.062992" r="0.750000" fill="#000000" />
<circle cx="226.771654" cy="48.897638" r="0.750000" fill="#000000" />
<circle cx="226.771654" cy="51.732283" r="0.750000" fill="#000000" />
<circle cx="226.771654" cy="54.566929" r="0.750000" fill="#000000" />
<circle cx="226.771654" cy="57.401575" r="0.750000" fill="#000000" />
<circle cx="226.771654" cy="60.236220" r="0.750000" fill="#000000" />
<circle cx="226.771654" cy="63.070866" r="0.750000" fill="#000000" />
<circle cx="226.771654" cy="65.905512" r="0.750000" fill="#000000" />
<circle cx="226.771654" cy="68.740157" r="0.750000" fill="#000000" />
<circle cx="226.771654" cy="71.574803" r="0.750000" fill="#000000" />
<path d="M 177.165 117.638 L 191.339 117.638 " fill="none" stroke-width="0.5" stroke="#000000" stroke-dasharray="4,2" />
<path d="M 191.339 21.9685 L 205.512 21.9685 L 205.512 29.0551 L 191.339 29.0551 Z " fill="url(#mgpat_2_000000)" stroke="none" />
<path d="M 219.685 21.9685 L 233.858 21.9685 L 233.858 29.0551 L 219.685 29.0551 Z " fill="url(#mgpat_2_000000)" stroke="none" />
<path d="M 191.339 21.9685 L 205.512 21.9685 L 205.512 29.0551 L 191.339 29.0551 Z " fill="none" stroke-width="0.6" stroke="#000000" />
<path d="M 219.685 21.9685 L 233.858 21.9685 L 233.858 29.0551 L 219.685 29.0551 Z " fill="none" stroke-width="0.6" stroke="#000000" />
<path d="M 177.165 97.7953 L 191.339 97.7953 L 191.339 43.937 " fill="none" stroke-width="0.6" stroke="#000000" />
<path d="M 205.512 43.937 L 205.512 97.7953 L 219.685 117.638 L 219.685 43.937 " fill="none" stroke-width="0.6" stroke="#000000" />
<path d="M 233.858 43.937 L 233.858 117.638 L 248.031 117.638 " fill="none" stroke-width="0.6" stroke="#000000" />
<path d="M 177.165 71.5748 L 184.252 71.5748 " fill="none" stroke-width="0.2" stroke="#000000" stroke-dasharray="2,1.6" />
<path d="M 189.213 71.5748 L 191.339 71.5748 " fill="none" stroke-width="0.2" stroke="#000000" stroke-dasharray="2,1.6" />
<path d="M 233.858 71.5748 L 235.205 71.5748 " fill="none" stroke-width="0.2" stroke="#000000" stroke-dasharray="2,1.6" />
<path d="M 240.945 71.5748 L 248.031 71.5748 " fill="none" stroke-width="0.2" stroke="#000000" stroke-dasharray="2,1.6" />
<path d="M 180 71.5748 L 180 81.4075 " fill="none" stroke-width="0.2" stroke="#000000" />
<path d="M 180 87.9626 L 180 97.7953 " fill="none" stroke-width="0.2" stroke="#000000" />
<g>
<path d="M 180 97.7953 L 179.858 96.8031 L 179.646 95.811 L 179.291 94.8189 L 180 95.811 L 180.709 94.8189 L 180.354 95.811 L 180.142 96.8031 L 180 97.7953 " fill="none" stroke-width="0.2" stroke="#000000" />
</g>
<g>
<path d="M 180 71.5748 L 180.142 72.5669 L 180.354 73.5591 L 180.709 74.5512 L 180 73.5591 L 179.291 74.5512 L 179.646 73.5591 L 179.858 72.5669 L 180 71.5748 " fill="none" stroke-width="0.2" stroke="#000000" />
</g>
<path d="M 244.488 71.5748 L 244.488 90 " fill="none" stroke-width="0.2" stroke="#000000" />
<path d="M 244.488 99.2126 L 244.488 117.638 " fill="none" stroke-width="0.2" stroke="#000000" />
<g>
<path d="M 244.488 117.638 L 244.346 116.646 L 244.134 115.654 L 243.78 114.661 L 244.488 115.654 L 245.197 114.661 L 244.843 115.654 L 244.63 116.646 L 244.488 117.638 " fill="none" stroke-width="0.2" stroke="#000000" />
</g>
<g>
<path d="M 244.488 71.5748 L 244.63 72.5669 L 244.843 73.5591 L 245.197 74.5512 L 244.488 73.5591 L 243.78 74.5512 L 244.134 73.5591 L 244.346 72.5669 L 244.488 71.5748 " fill="none" stroke-width="0.2" stroke="#000000" />
</g>
<path d="M 184.252 97.7953 L 184.252 104.244 " fill="none" stroke-width="0.2" stroke="#000000" />
<path d="M 184.252 111.189 L 184.252 117.638 " fill="none" stroke-width="0.2" stroke="#000000" />
<g>
<path d="M 184.252 117.638 L 184.11 116.646 L 183.898 115.654 L 183.543 114.661 L 184.252 115.654 L 184.961 114.661 L 184.606 115.654 L 184.394 116.646 L 184.252 117.638 " fill="none" stroke-width="0.2" stroke="#000000" />
</g>
<g>
<path d="M 184.252 97.7953 L 184.394 98.7874 L 184.606 99.7795 L 184.961 100.772 L 184.252 99.7795 L 183.543 100.772 L 183.898 99.7795 L 184.11 98.7874 L 184.252 97.7953 " fill="none" stroke-width="0.2" stroke="#000000" />
</g>
<text x="192.755906" y="-14.881890" transform="scale(1, -1)" text-anchor="start" fill="#000000" font-size="8.000000" font-family="'Times New Roman', Times, 'Liberation Serif', 'Nimbus Roman', serif" font-style="normal" font-weight="normal">metal A</text>
<text x="221.102362" y="-14.881890" transform="scale(1, -1)" text-anchor="start" fill="#000000" font-size="8.000000" font-family="'Times New Roman', Times, 'Liberation Serif', 'Nimbus Roman', serif" font-style="normal" font-weight="normal">metal B</text>
<text x="184.251969" y="-69.448819" transform="scale(1, -1)" text-anchor="start" fill="#000000" font-size="8.000000" font-family="'Times New Roman', Times, 'Liberation Serif', 'Nimbus Roman', serif" font-style="italic" font-weight="normal">E</text>
<text x="189.139969" y="-68.328819" transform="scale(1, -1)" text-anchor="start" fill="#000000" font-size="5.600000" font-family="'Times New Roman', Times, 'Liberation Serif', 'Nimbus Roman', serif" font-style="italic" font-weight="normal">F</text>
<text x="192.561569" y="-68.328819" transform="scale(1, -1)" text-anchor="start" fill="#000000" font-size="3.920000" font-family="'Times New Roman', Times, 'Liberation Serif', 'Nimbus Roman', serif" font-style="italic" font-weight="normal">A</text>
<text x="194.956689" y="-69.448819" transform="scale(1, -1)" text-anchor="start" fill="#000000" font-size="8.000000" font-family="'Times New Roman', Times, 'Liberation Serif', 'Nimbus Roman', serif" font-style="italic" font-weight="normal"> </text>
<text x="177.519685" y="-82.204724" transform="scale(1, -1)" text-anchor="start" fill="#000000" font-size="8.000000" font-family="'Times New Roman', Times, 'Liberation Serif', 'Nimbus Roman', serif" font-style="italic" font-weight="normal">W</text>
<text x="184.183685" y="-81.084724" transform="scale(1, -1)" text-anchor="start" fill="#000000" font-size="5.600000" font-family="'Times New Roman', Times, 'Liberation Serif', 'Nimbus Roman', serif" font-style="italic" font-weight="normal">A</text>
<text x="187.605285" y="-82.204724" transform="scale(1, -1)" text-anchor="start" fill="#000000" font-size="8.000000" font-family="'Times New Roman', Times, 'Liberation Serif', 'Nimbus Roman', serif" font-style="italic" font-weight="normal"> </text>
<text x="242.362205" y="-92.125984" transform="scale(1, -1)" text-anchor="start" fill="#000000" font-size="8.000000" font-family="'Times New Roman', Times, 'Liberation Serif', 'Nimbus Roman', serif" font-style="italic" font-weight="normal">W</text>
<text x="249.026205" y="-91.005984" transform="scale(1, -1)" text-anchor="start" fill="#000000" font-size="5.600000" font-family="'Times New Roman', Times, 'Liberation Serif', 'Nimbus Roman', serif" font-style="italic" font-weight="normal">B</text>
<text x="252.447805" y="-92.125984" transform="scale(1, -1)" text-anchor="start" fill="#000000" font-size="8.000000" font-family="'Times New Roman', Times, 'Liberation Serif', 'Nimbus Roman', serif" font-style="italic" font-weight="normal"> </text>
<text x="235.275591" y="-69.448819" transform="scale(1, -1)" text-anchor="start" fill="#000000" font-size="8.000000" font-family="'Times New Roman', Times, 'Liberation Serif', 'Nimbus Roman', serif" font-style="italic" font-weight="normal">E</text>
<text x="240.163591" y="-68.328819" transform="scale(1, -1)" text-anchor="start" fill="#000000" font-size="5.600000" font-family="'Times New Roman', Times, 'Liberation Serif', 'Nimbus Roman', serif" font-style="italic" font-weight="normal">F</text>
<text x="243.585191" y="-68.328819" transform="scale(1, -1)" text-anchor="start" fill="#000000" font-size="3.920000" font-family="'Times New Roman', Times, 'Liberation Serif', 'Nimbus Roman', serif" font-style="italic" font-weight="normal">B</text>
<text x="245.980311" y="-69.448819" transform="scale(1, -1)" text-anchor="start" fill="#000000" font-size="8.000000" font-family="'Times New Roman', Times, 'Liberation Serif', 'Nimbus Roman', serif" font-style="italic" font-weight="normal"> </text>
<text x="177.165354" y="-105.165354" transform="scale(1, -1)" text-anchor="start" fill="#000000" font-size="8.000000" font-family="'Times New Roman', Times, 'Liberation Serif', 'Nimbus Roman', serif" font-style="italic" font-weight="normal">Δ</text>
<text x="183.829354" y="-105.165354" transform="scale(1, -1)" text-anchor="start" fill="#000000" font-size="8.000000" font-family="'Times New Roman', Times, 'Liberation Serif', 'Nimbus Roman', serif" font-style="italic" font-weight="normal">V=W</text>
<text x="200.781354" y="-104.045354" transform="scale(1, -1)" text-anchor="start" fill="#000000" font-size="5.600000" font-family="'Times New Roman', Times, 'Liberation Serif', 'Nimbus Roman', serif" font-style="italic" font-weight="normal">B</text>
<text x="204.202954" y="-105.165354" transform="scale(1, -1)" text-anchor="start" fill="#000000" font-size="8.000000" font-family="'Times New Roman', Times, 'Liberation Serif', 'Nimbus Roman', serif" font-style="italic" font-weight="normal">-W</text>
<text x="216.266954" y="-104.045354" transform="scale(1, -1)" text-anchor="start" fill="#000000" font-size="5.600000" font-family="'Times New Roman', Times, 'Liberation Serif', 'Nimbus Roman', serif" font-style="italic" font-weight="normal">A</text>
<text x="219.688554" y="-105.165354" transform="scale(1, -1)" text-anchor="start" fill="#000000" font-size="8.000000" font-family="'Times New Roman', Times, 'Liberation Serif', 'Nimbus Roman', serif" font-style="italic" font-weight="normal"> </text>
</g>
<text x="128.976378" y="-5.669291" transform="scale(1, -1)" text-anchor="start" fill="#000000" font-size="8.000000" font-family="'Times New Roman', Times, 'Liberation Serif', 'Nimbus Roman', serif" font-style="normal" font-weight="normal">a) </text>
<text x="209.763780" y="-5.669291" transform="scale(1, -1)" text-anchor="start" fill="#000000" font-size="8.000000" font-family="'Times New Roman', Times, 'Liberation Serif', 'Nimbus Roman', serif" font-style="normal" font-weight="normal">b)</text>
<g transform="rotate(90.000000, 88.582677, 46.771654)">
<text x="88.582677" y="-46.771654" transform="scale(1, -1)" text-anchor="start" fill="#000000" font-size="8.000000" font-family="'Times New Roman', Times, 'Liberation Serif', 'Nimbus Roman', serif" font-style="normal" font-weight="normal">energy</text>
</g>
</g>
</svg>
