<?xml version="1.0" encoding="UTF-8" standalone="no"?>
<svg width="340.157480pt" height="340.157480pt" viewBox="0 -340.157480 340.157480 340.157480" xmlns="http://www.w3.org/2000/svg">
<g transform="scale(1, -1)">
<text x="170.078740" y="-323.149606" transform="scale(1, -1)" text-anchor="middle" fill="#000000" font-size="10.000000" font-family="'Times New Roman', Times, 'Liberation Serif', 'Nimbus Roman', serif" font-style="normal" font-weight="bold">Marcadores estandar y orientacion tangente</text>
<g>
<path d="M 52.0441 283.465 A 9.52441 9.52441 0 1 1 32.9953 283.465 A 9.52441 9.52441 0 1 1 52.0441 283.465 " fill="#000000" stroke="none" />
</g>
<g>
<path d="M 89.6882 273.94 L 108.737 273.94 L 108.737 292.989 L 89.6882 292.989 L 89.6882 273.94 " fill="#000000" stroke="none" />
</g>
<g>
<path d="M 155.906 273.94 L 165.43 283.465 L 155.906 292.989 L 146.381 283.465 L 155.906 273.94 " fill="#000000" stroke="none" />
</g>
<g>
<path d="M 203.074 283.465 L 222.123 283.465 " fill="none" stroke-width="1" stroke="#000000" />
<path d="M 212.598 273.94 L 212.598 292.989 " fill="none" stroke-width="1" stroke="#000000" />
</g>
<g>
<path d="M 259.767 273.94 L 278.816 292.989 " fill="none" stroke-width="1" stroke="#000000" />
<path d="M 259.767 292.989 L 278.816 273.94 " fill="none" stroke-width="1" stroke="#000000" />
</g>
<g>
<path d="M 316.46 276.797 L 335.509 283.465 L 316.46 290.132 L 316.46 276.797 " fill="#000000" stroke="none" />
</g>
<path d="M 28.3465 170.079 L 85.0394 226.772 L 170.079 226.772 L 255.118 170.079 L 311.811 141.732 " fill="none" stroke-width="1" stroke="#0000FF" />
<g>
<path d="M 25.4601 153.723 L 37.9676 179.7 L 11.9906 167.192 L 25.4601 153.723 " fill="#000000" stroke="none" />
</g>
<g>
<path d="M 75.9435 212.875 L 97.6725 231.825 L 68.869 230.562 L 75.9435 212.875 " fill="#000000" stroke="none" />
</g>
<g>
<path d="M 154.159 222.039 L 182.987 222.469 L 160.183 240.11 L 154.159 222.039 " fill="#000000" stroke="none" />
</g>
<g>
<path d="M 238.551 168.912 L 266.785 163.078 L 248.351 185.246 L 238.551 168.912 " fill="#000000" stroke="none" />
</g>
<g>
<path d="M 295.382 139.298 L 323.981 135.647 L 303.901 156.336 L 295.382 139.298 " fill="#000000" stroke="none" />
</g>
<path d="M 28.3465 56.6929 L 85.0394 90.7087 L 141.732 68.0315 L 198.425 102.047 L 255.118 79.3701 L 311.811 96.378 " fill="none" stroke-width="1" stroke="#FF0000" />
<g>
<path d="M 38.5512 56.6929 A 10.2047 10.2047 0 1 1 18.1417 56.6929 A 10.2047 10.2047 0 1 1 38.5512 56.6929 " fill="#000000" stroke="none" />
</g>
<g>
<path d="M 95.2441 90.7087 A 10.2047 10.2047 0 1 1 74.8346 90.7087 A 10.2047 10.2047 0 1 1 95.2441 90.7087 " fill="#000000" stroke="none" />
</g>
<g>
<path d="M 151.937 68.0315 A 10.2047 10.2047 0 1 1 131.528 68.0315 A 10.2047 10.2047 0 1 1 151.937 68.0315 " fill="#000000" stroke="none" />
</g>
<g>
<path d="M 208.63 102.047 A 10.2047 10.2047 0 1 1 188.22 102.047 A 10.2047 10.2047 0 1 1 208.63 102.047 " fill="#000000" stroke="none" />
</g>
<g>
<path d="M 265.323 79.3701 A 10.2047 10.2047 0 1 1 244.913 79.3701 A 10.2047 10.2047 0 1 1 265.323 79.3701 " fill="#000000" stroke="none" />
</g>
<g>
<path d="M 322.016 96.378 A 10.2047 10.2047 0 1 1 301.606 96.378 A 10.2047 10.2047 0 1 1 322.016 96.378 " fill="#000000" stroke="none" />
</g>
</g>
</svg>
