<?xml version="1.0" encoding="UTF-8" standalone="no"?>
<svg width="311.811024pt" height="311.811024pt" viewBox="0 -311.811024 311.811024 311.811024" xmlns="http://www.w3.org/2000/svg">
<g transform="scale(1, -1)">
<path d="M 162.992 170.079 L 162.992 184.252 " fill="none" stroke-width="12" stroke="#000000" />
<path d="M 170.079 155.906 L 170.079 170.079 " fill="none" stroke-width="0.5" stroke="#000000" />
<text x="155.905512" y="-155.905512" transform="scale(1, -1)" text-anchor="start" fill="#000000" font-size="15.000000" font-family="'Times New Roman', Times, 'Liberation Serif', 'Nimbus Roman', serif" font-style="normal" font-weight="normal">M</text>
<path d="M 14.1732 155.906 L 297.638 155.906 " fill="none" stroke-width="0.5" stroke="#000000" />
<path d="M 155.906 14.1732 L 155.906 290.551 " fill="none" stroke-width="0.5" stroke="#000000" />
<text x="155.905512" y="-297.637795" transform="scale(1, -1)" text-anchor="middle" fill="#000000" font-size="15.000000" font-family="'Times New Roman', Times, 'Liberation Serif', 'Nimbus Roman', serif" font-style="normal" font-weight="normal">Primitivos gráficos</text>
<text x="226.771654" y="-262.204724" transform="scale(1, -1)" text-anchor="middle" fill="#000000" font-size="10.000000" font-family="'Times New Roman', Times, 'Liberation Serif', 'Nimbus Roman', serif" font-style="normal" font-weight="normal">Círculo y arcos</text>
<path d="M 255.118 226.772 A 28.3465 28.3465 0 1 1 198.425 226.772 A 28.3465 28.3465 0 1 1 255.118 226.772 " fill="none" stroke-width="0.8" stroke="#000000" />
<path d="M 262.205 226.772 A 35.4331 35.4331 0 0 1 226.772 262.205 " fill="none" stroke-width="0.8" stroke="#000000" />
<path d="M 263.595 248.031 A 42.5197 42.5197 0 0 1 256.838 256.838 " fill="none" stroke-width="0.8" stroke="#000000" />
<path d="M 269.291 226.772 A 42.5197 42.5197 0 0 0 263.595 205.512 " fill="none" stroke-width="0.8" stroke="#000000" />
<text x="85.039370" y="-262.204724" transform="scale(1, -1)" text-anchor="middle" fill="#000000" font-size="10.000000" font-family="'Times New Roman', Times, 'Liberation Serif', 'Nimbus Roman', serif" font-style="normal" font-weight="normal">Elipse</text>
<path d="M 113.386 226.772 A 28.3465 14.1732 0 1 1 56.6929 226.772 A 28.3465 14.1732 0 1 1 113.386 226.772 " fill="none" stroke-width="0.8" stroke="#000000" />
<text x="226.771654" y="-127.559055" transform="scale(1, -1)" text-anchor="middle" fill="#000000" font-size="10.000000" font-family="'Times New Roman', Times, 'Liberation Serif', 'Nimbus Roman', serif" font-style="normal" font-weight="normal">Rectángulo</text>
<path d="M 226.772 120.472 L 262.205 120.472 L 262.205 70.8661 L 226.772 70.8661 Z " fill="none" stroke-width="0.8" stroke="#000000" />
<text x="85.039370" y="-127.559055" transform="scale(1, -1)" text-anchor="middle" fill="#000000" font-size="10.000000" font-family="'Times New Roman', Times, 'Liberation Serif', 'Nimbus Roman', serif" font-style="normal" font-weight="normal">Polígono</text>
<path d="M 127.559 85.0394 L 98.178 125.476 L 50.6409 110.027 L 50.6409 60.052 L 98.178 44.6457 L 127.559 85.0394 " fill="none" stroke-width="0.8" stroke="#000000" />
<g transform="translate(-28.346457, -21.259843)">
<defs><pattern id="mgpat_2_00FFFF" patternUnits="userSpaceOnUse" width="4.000000" height="4.000000" patternTransform="rotate(-45.000000)"><line x1="0" y1="0" x2="4.000000" y2="0" stroke="#00FFFF" stroke-width="0.800000"/></pattern></defs>
<path d="M 127.559 85.0394 L 98.178 125.476 L 50.6409 110.027 L 50.6409 60.052 L 98.178 44.6457 L 127.559 85.0394 " fill="url(#mgpat_2_00FFFF)" stroke-width="0.8" stroke="#00FF00" />
<path d="M 255.118 226.772 A 28.3465 28.3465 0 1 1 198.425 226.772 A 28.3465 28.3465 0 1 1 255.118 226.772 " fill="url(#mgpat_2_00FFFF)" stroke-width="0.8" stroke="#00FF00" />
<path d="M 113.386 226.772 A 28.3465 14.1732 0 1 1 56.6929 226.772 A 28.3465 14.1732 0 1 1 113.386 226.772 " fill="url(#mgpat_2_00FFFF)" stroke-width="0.8" stroke="#00FF00" />
<path d="M 226.772 70.8661 L 262.205 70.8661 L 262.205 120.472 L 226.772 120.472 Z " fill="url(#mgpat_2_00FFFF)" stroke-width="0.8" stroke="#00FF00" />
</g>
</g>
</svg>
