<?xml version="1.0" encoding="UTF-8" standalone="no"?>
<svg width="85.039370pt" height="85.039370pt" viewBox="0 -85.039370 85.039370 85.039370" xmlns="http://www.w3.org/2000/svg">
<rect x="0" y="-85.039370" width="85.039370" height="85.039370" fill="#ffffff"/>
<g transform="scale(1, -1)">
<path d="M 0.755949 40.7203 L 71.8809 70.1801 L 44.2205 3.40157 L 16.5601 70.1801 L 83.3386 42.5197 L 16.5601 14.8593 L 44.2205 73.8142 " fill="none" stroke-width="0.1" stroke="#000000" />
<polyline points="7.86844,43.6662 6.20103,43.3363 4.47004,43.1605 2.6112,43.2928 4.78891,42.3907 3.88684,40.213 5.10777,41.6209 6.45608,42.7205 7.86844,43.6662 " fill="none" stroke="#000000" stroke-width="0.100000" />
<polyline points="44.2205,73.8142 43.2108,72.4468 42.0503,71.1505 40.5878,69.9956 42.8047,70.7966 43.6056,68.5797 43.559,70.4426 43.8142,72.1637 44.2205,73.8142 " fill="none" stroke="#000000" stroke-width="0.100000" />
<defs><pattern id="mgpat_135000_2000_000000" patternUnits="userSpaceOnUse" width="2.000000" height="2.000000" patternTransform="rotate(-45.000000)"><line x1="0" y1="0" x2="2.000000" y2="0" stroke="#000000" stroke-width="0.400000"/></pattern></defs>
<path d="M 5.10236 49.3106 L 5.10236 82.2246 L 83.9254 82.2246 L 83.9254 2.8148 L 5.10236 2.8148 L 5.10236 35.7288 L 5.69665 35.7269 A 39.1181 39.1181 0 1 1 5.69665 49.3125 " fill="url(#mgpat_135000_2000_000000)" stroke-width="0.4" stroke="#000000" />
</g>
</svg>
