<?xml version="1.0" encoding="UTF-8" standalone="no"?>
<svg width="311.811024pt" height="218.267717pt" viewBox="0 -218.267717 311.811024 218.267717" xmlns="http://www.w3.org/2000/svg">
<rect x="0" y="-218.267717" width="311.811024" height="218.267717" fill="#ffffff"/>
<g transform="scale(1, -1)">
<path d="M 87.7194 9.92126 L 87.7194 50.1024 " fill="none" stroke-width="0.1" stroke="#000000" />
<path d="M 87.7194 59.0315 L 87.7194 99.2126 " fill="none" stroke-width="0.1" stroke="#000000" />
<path d="M 141.835 9.92126 L 141.835 99.2126 " fill="none" stroke-width="0.1" stroke="#000000" />
<path d="M 204.971 9.92126 L 204.971 36.7087 " fill="none" stroke-width="0.1" stroke="#000000" />
<path d="M 204.971 45.6378 L 204.971 63.4961 " fill="none" stroke-width="0.1" stroke="#000000" />
<path d="M 204.971 72.4252 L 204.971 99.2126 " fill="none" stroke-width="0.1" stroke="#000000" />
<path d="M 259.087 9.92126 L 259.087 99.2126 " fill="none" stroke-width="0.1" stroke="#000000" />
<path d="M 61.5634 18.8504 L 85.9155 18.8504 " fill="none" stroke-width="0.2" stroke="#000000" />
<polyline points="85.9155,18.8504 82.9154,19.4502 79.9157,20.3502 76.9155,21.8505 79.9157,18.8504 76.9155,15.8502 79.9157,17.3505 82.9154,18.2505 85.9155,18.8504 " fill="none" stroke="#000000" stroke-width="0.200000" />
<path d="M 177.913 18.8504 L 203.167 18.8504 " fill="none" stroke-width="0.2" stroke="#000000" />
<polyline points="203.167,18.8504 200.167,19.4502 197.167,20.3502 194.167,21.8505 197.167,18.8504 194.167,15.8502 197.167,17.3505 200.167,18.2505 203.167,18.8504 " fill="none" stroke="#000000" stroke-width="0.200000" />
<path d="M 61.5634 27.7795 L 85.9155 27.7795 " fill="none" stroke-width="0.2" stroke="#000000" />
<polyline points="85.9155,27.7795 82.9154,28.3794 79.9157,29.2794 76.9155,30.7797 79.9157,27.7795 76.9155,24.7794 79.9157,26.2797 82.9154,27.1797 85.9155,27.7795 " fill="none" stroke="#000000" stroke-width="0.200000" />
<path d="M 177.913 27.7795 L 203.167 27.7795 " fill="none" stroke-width="0.2" stroke="#000000" />
<polyline points="203.167,27.7795 200.167,28.3794 197.167,29.2794 194.167,30.7797 197.167,27.7795 194.167,24.7794 197.167,26.2797 200.167,27.1797 203.167,27.7795 " fill="none" stroke="#000000" stroke-width="0.200000" />
<path d="M 61.5634 36.7087 L 85.9155 36.7087 " fill="none" stroke-width="0.2" stroke="#000000" />
<polyline points="85.9155,36.7087 82.9154,37.3085 79.9157,38.2085 76.9155,39.7088 79.9157,36.7087 76.9155,33.7085 79.9157,35.2088 82.9154,36.1088 85.9155,36.7087 " fill="none" stroke="#000000" stroke-width="0.200000" />
<path d="M 177.913 36.7087 L 203.167 36.7087 " fill="none" stroke-width="0.2" stroke="#000000" />
<polyline points="203.167,36.7087 200.167,37.3085 197.167,38.2085 194.167,39.7088 197.167,36.7087 194.167,33.7085 197.167,35.2088 200.167,36.1088 203.167,36.7087 " fill="none" stroke="#000000" stroke-width="0.200000" />
<path d="M 61.5634 45.6378 L 85.9155 45.6378 " fill="none" stroke-width="0.2" stroke="#000000" />
<polyline points="85.9155,45.6378 82.9154,46.2376 79.9157,47.1376 76.9155,48.6379 79.9157,45.6378 76.9155,42.6376 79.9157,44.1379 82.9154,45.0379 85.9155,45.6378 " fill="none" stroke="#000000" stroke-width="0.200000" />
<path d="M 177.913 45.6378 L 203.167 45.6378 " fill="none" stroke-width="0.2" stroke="#000000" />
<polyline points="203.167,45.6378 200.167,46.2376 197.167,47.1376 194.167,48.6379 197.167,45.6378 194.167,42.6376 197.167,44.1379 200.167,45.0379 203.167,45.6378 " fill="none" stroke="#000000" stroke-width="0.200000" />
<path d="M 61.5634 54.5669 L 85.9155 54.5669 " fill="none" stroke-width="0.2" stroke="#000000" />
<polyline points="85.9155,54.5669 82.9154,55.1668 79.9157,56.0668 76.9155,57.5671 79.9157,54.5669 76.9155,51.5668 79.9157,53.0671 82.9154,53.9671 85.9155,54.5669 " fill="none" stroke="#000000" stroke-width="0.200000" />
<path d="M 177.913 54.5669 L 203.167 54.5669 " fill="none" stroke-width="0.2" stroke="#000000" />
<polyline points="203.167,54.5669 200.167,55.1668 197.167,56.0668 194.167,57.5671 197.167,54.5669 194.167,51.5668 197.167,53.0671 200.167,53.9671 203.167,54.5669 " fill="none" stroke="#000000" stroke-width="0.200000" />
<path d="M 61.5634 63.4961 L 85.9155 63.4961 " fill="none" stroke-width="0.2" stroke="#000000" />
<polyline points="85.9155,63.4961 82.9154,64.0959 79.9157,64.9959 76.9155,66.4962 79.9157,63.4961 76.9155,60.4959 79.9157,61.9962 82.9154,62.8962 85.9155,63.4961 " fill="none" stroke="#000000" stroke-width="0.200000" />
<path d="M 177.913 63.4961 L 203.167 63.4961 " fill="none" stroke-width="0.2" stroke="#000000" />
<polyline points="203.167,63.4961 200.167,64.0959 197.167,64.9959 194.167,66.4962 197.167,63.4961 194.167,60.4959 197.167,61.9962 200.167,62.8962 203.167,63.4961 " fill="none" stroke="#000000" stroke-width="0.200000" />
<path d="M 61.5634 72.4252 L 85.9155 72.4252 " fill="none" stroke-width="0.2" stroke="#000000" />
<polyline points="85.9155,72.4252 82.9154,73.025 79.9157,73.925 76.9155,75.4253 79.9157,72.4252 76.9155,69.425 79.9157,70.9253 82.9154,71.8253 85.9155,72.4252 " fill="none" stroke="#000000" stroke-width="0.200000" />
<path d="M 177.913 72.4252 L 203.167 72.4252 " fill="none" stroke-width="0.2" stroke="#000000" />
<polyline points="203.167,72.4252 200.167,73.025 197.167,73.925 194.167,75.4253 197.167,72.4252 194.167,69.425 197.167,70.9253 200.167,71.8253 203.167,72.4252 " fill="none" stroke="#000000" stroke-width="0.200000" />
<path d="M 61.5634 81.3543 L 85.9155 81.3543 " fill="none" stroke-width="0.2" stroke="#000000" />
<polyline points="85.9155,81.3543 82.9154,81.9542 79.9157,82.8542 76.9155,84.3545 79.9157,81.3543 76.9155,78.3542 79.9157,79.8545 82.9154,80.7545 85.9155,81.3543 " fill="none" stroke="#000000" stroke-width="0.200000" />
<path d="M 177.913 81.3543 L 203.167 81.3543 " fill="none" stroke-width="0.2" stroke="#000000" />
<polyline points="203.167,81.3543 200.167,81.9542 197.167,82.8542 194.167,84.3545 197.167,81.3543 194.167,78.3542 197.167,79.8545 200.167,80.7545 203.167,81.3543 " fill="none" stroke="#000000" stroke-width="0.200000" />
<path d="M 61.5634 90.2835 L 85.9155 90.2835 " fill="none" stroke-width="0.2" stroke="#000000" />
<polyline points="85.9155,90.2835 82.9154,90.8833 79.9157,91.7833 76.9155,93.2836 79.9157,90.2835 76.9155,87.2833 79.9157,88.7836 82.9154,89.6836 85.9155,90.2835 " fill="none" stroke="#000000" stroke-width="0.200000" />
<path d="M 177.913 90.2835 L 203.167 90.2835 " fill="none" stroke-width="0.2" stroke="#000000" />
<polyline points="203.167,90.2835 200.167,90.8833 197.167,91.7833 194.167,93.2836 197.167,90.2835 194.167,87.2833 197.167,88.7836 200.167,89.6836 203.167,90.2835 " fill="none" stroke="#000000" stroke-width="0.200000" />
<path d="M 141.835 9.92126 L 141.803 11.0374 L 141.702 12.1535 L 141.533 13.2697 L 141.299 14.3858 L 141.015 15.502 L 140.697 16.6181 L 140.37 17.7343 L 140.06 18.8504 L 139.795 19.9665 L 139.602 21.0827 L 139.503 22.1988 L 139.516 23.315 L 139.646 24.4311 L 139.889 25.5472 L 140.227 26.6634 L 140.63 27.7795 L 141.052 28.8957 L 141.439 30.0118 L 141.724 31.128 L 141.835 32.2441 L 141.699 33.3602 L 141.243 34.4764 L 140.402 35.5925 L 139.122 36.7087 L 137.368 37.8248 L 135.122 38.9409 L 132.391 40.0571 L 129.207 41.1732 L 125.627 42.2894 L 121.731 43.4055 L 117.623 44.5217 L 113.423 45.6378 L 109.263 46.7539 L 105.285 47.8701 L 101.628 48.9862 L 98.4246 50.1024 L 95.7959 51.2185 L 93.8416 52.3346 L 92.6377 53.4508 L 92.2291 54.5669 L 92.6377 55.6831 L 93.8416 56.7992 L 95.7959 57.9154 L 98.4246 59.0315 L 101.628 60.1476 L 105.285 61.2638 L 109.263 62.3799 L 113.423 63.4961 L 117.623 64.6122 L 121.731 65.7283 L 125.627 66.8445 L 129.207 67.9606 L 132.391 69.0768 L 135.122 70.1929 L 137.368 71.3091 L 139.122 72.4252 L 140.402 73.5413 L 141.243 74.6575 L 141.699 75.7736 L 141.835 76.8898 L 141.724 78.0059 L 141.439 79.122 L 141.052 80.2382 L 140.63 81.3543 L 140.227 82.4705 L 139.889 83.5866 L 139.646 84.7028 L 139.516 85.8189 L 139.503 86.935 L 139.602 88.0512 L 139.795 89.1673 L 140.06 90.2835 L 140.37 91.3996 L 140.697 92.5157 L 141.015 93.6319 L 141.299 94.748 L 141.533 95.8642 L 141.702 96.9803 L 141.803 98.0965 L 141.835 99.2126 " fill="none" stroke-width="0.4" stroke="#000000" />
<path d="M 259.087 9.92126 L 259.078 10.4793 L 259.059 11.0374 L 259.04 11.5955 L 259.037 12.1535 L 259.053 12.7116 L 259.079 13.2697 L 259.084 13.8278 L 259.031 14.3858 L 258.886 14.9439 L 258.639 15.502 L 258.312 16.06 L 257.963 16.6181 L 257.675 17.1762 L 257.527 17.7343 L 257.574 18.2923 L 257.819 18.8504 L 258.205 19.4085 L 258.628 19.9665 L 258.959 20.5246 L 259.087 21.0827 L 258.95 21.6407 L 258.562 22.1988 L 258.01 22.7569 L 257.431 23.315 L 256.974 23.873 L 256.757 24.4311 L 256.83 24.9892 L 257.166 25.5472 L 257.669 26.1053 L 258.209 26.6634 L 258.666 27.2215 L 258.961 27.7795 L 259.08 28.3376 L 259.066 28.8957 L 258.994 29.4537 L 258.937 30.0118 L 258.937 30.5699 L 258.99 31.128 L 259.056 31.686 L 259.087 32.2441 L 259.053 32.8022 L 258.969 33.3602 L 258.885 33.9183 L 258.863 34.4764 L 258.933 35.0344 L 259.048 35.5925 L 259.073 36.1506 L 258.804 36.7087 L 258.035 37.2667 L 256.65 37.8248 L 254.702 38.3829 L 252.462 38.9409 L 250.392 39.499 L 249.036 40.0571 L 248.861 40.6152 L 250.07 41.1732 L 252.473 41.7313 L 255.442 42.2894 L 258.009 42.8474 L 259.087 43.4055 L 257.77 43.9636 L 253.643 44.5217 L 246.981 45.0797 L 238.8 45.6378 L 230.681 46.1959 L 224.423 46.7539 L 221.581 47.312 L 223.021 47.8701 L 228.61 48.4281 L 237.155 48.9862 L 246.616 49.5443 L 254.564 50.1024 L 258.786 50.6604 L 257.858 51.2185 L 251.561 51.7766 L 240.998 52.3346 L 228.372 52.8927 L 216.478 53.4508 L 208.027 54.0089 L 204.971 54.5669 L 208.027 55.125 L 216.478 55.6831 L 228.372 56.2411 L 240.998 56.7992 L 251.561 57.3573 L 257.858 57.9154 L 258.786 58.4734 L 254.564 59.0315 L 246.616 59.5896 L 237.155 60.1476 L 228.61 60.7057 L 223.021 61.2638 L 221.581 61.8219 L 224.423 62.3799 L 230.681 62.938 L 238.8 63.4961 L 246.981 64.0541 L 253.643 64.6122 L 257.77 65.1703 L 259.087 65.7283 L 258.009 66.2864 L 255.442 66.8445 L 252.473 67.4026 L 250.07 67.9606 L 248.861 68.5187 L 249.036 69.0768 L 250.392 69.6348 L 252.462 70.1929 L 254.702 70.751 L 256.65 71.3091 L 258.035 71.8671 L 258.804 72.4252 L 259.073 72.9833 L 259.048 73.5413 L 258.933 74.0994 L 258.863 74.6575 L 258.885 75.2156 L 258.969 75.7736 L 259.053 76.3317 L 259.087 76.8898 L 259.056 77.4478 L 258.99 78.0059 L 258.937 78.564 L 258.937 79.122 L 258.994 79.6801 L 259.066 80.2382 L 259.08 80.7963 L 258.961 81.3543 L 258.666 81.9124 L 258.209 82.4705 L 257.669 83.0285 L 257.166 83.5866 L 256.83 84.1447 L 256.757 84.7028 L 256.974 85.2608 L 257.431 85.8189 L 258.01 86.377 L 258.562 86.935 L 258.95 87.4931 L 259.087 88.0512 L 258.959 88.6093 L 258.628 89.1673 L 258.205 89.7254 L 257.819 90.2835 L 257.574 90.8415 L 257.527 91.3996 L 257.675 91.9577 L 257.963 92.5157 L 258.312 93.0738 L 258.639 93.6319 L 258.886 94.19 L 259.031 94.748 L 259.084 95.3061 L 259.079 95.8642 L 259.053 96.4222 L 259.037 96.9803 L 259.04 97.5384 L 259.059 98.0965 L 259.078 98.6545 L 259.087 99.2126 " fill="none" stroke-width="0.4" stroke="#000000" />
<path d="M 87.7194 119.055 L 87.7194 159.236 " fill="none" stroke-width="0.1" stroke="#000000" />
<path d="M 87.7194 168.165 L 87.7194 208.346 " fill="none" stroke-width="0.1" stroke="#000000" />
<path d="M 141.835 119.055 L 141.835 208.346 " fill="none" stroke-width="0.1" stroke="#000000" />
<path d="M 204.971 119.055 L 204.971 145.843 " fill="none" stroke-width="0.1" stroke="#000000" />
<path d="M 204.971 154.772 L 204.971 172.63 " fill="none" stroke-width="0.1" stroke="#000000" />
<path d="M 204.971 181.559 L 204.971 208.346 " fill="none" stroke-width="0.1" stroke="#000000" />
<path d="M 259.087 119.055 L 259.087 208.346 " fill="none" stroke-width="0.1" stroke="#000000" />
<path d="M 61.5634 127.984 L 85.9155 127.984 " fill="none" stroke-width="0.2" stroke="#000000" />
<polyline points="85.9155,127.984 82.9154,128.584 79.9157,129.484 76.9155,130.984 79.9157,127.984 76.9155,124.984 79.9157,126.484 82.9154,127.384 85.9155,127.984 " fill="none" stroke="#000000" stroke-width="0.200000" />
<path d="M 177.913 127.984 L 203.167 127.984 " fill="none" stroke-width="0.2" stroke="#000000" />
<polyline points="203.167,127.984 200.167,128.584 197.167,129.484 194.167,130.984 197.167,127.984 194.167,124.984 197.167,126.484 200.167,127.384 203.167,127.984 " fill="none" stroke="#000000" stroke-width="0.200000" />
<path d="M 61.5634 136.913 L 85.9155 136.913 " fill="none" stroke-width="0.2" stroke="#000000" />
<polyline points="85.9155,136.913 82.9154,137.513 79.9157,138.413 76.9155,139.914 79.9157,136.913 76.9155,133.913 79.9157,135.414 82.9154,136.314 85.9155,136.913 " fill="none" stroke="#000000" stroke-width="0.200000" />
<path d="M 177.913 136.913 L 203.167 136.913 " fill="none" stroke-width="0.2" stroke="#000000" />
<polyline points="203.167,136.913 200.167,137.513 197.167,138.413 194.167,139.914 197.167,136.913 194.167,133.913 197.167,135.414 200.167,136.314 203.167,136.913 " fill="none" stroke="#000000" stroke-width="0.200000" />
<path d="M 61.5634 145.843 L 85.9155 145.843 " fill="none" stroke-width="0.2" stroke="#000000" />
<polyline points="85.9155,145.843 82.9154,146.442 79.9157,147.342 76.9155,148.843 79.9157,145.843 76.9155,142.842 79.9157,144.343 82.9154,145.243 85.9155,145.843 " fill="none" stroke="#000000" stroke-width="0.200000" />
<path d="M 177.913 145.843 L 203.167 145.843 " fill="none" stroke-width="0.2" stroke="#000000" />
<polyline points="203.167,145.843 200.167,146.442 197.167,147.342 194.167,148.843 197.167,145.843 194.167,142.842 197.167,144.343 200.167,145.243 203.167,145.843 " fill="none" stroke="#000000" stroke-width="0.200000" />
<path d="M 61.5634 154.772 L 85.9155 154.772 " fill="none" stroke-width="0.2" stroke="#000000" />
<polyline points="85.9155,154.772 82.9154,155.372 79.9157,156.272 76.9155,157.772 79.9157,154.772 76.9155,151.772 79.9157,153.272 82.9154,154.172 85.9155,154.772 " fill="none" stroke="#000000" stroke-width="0.200000" />
<path d="M 177.913 154.772 L 203.167 154.772 " fill="none" stroke-width="0.2" stroke="#000000" />
<polyline points="203.167,154.772 200.167,155.372 197.167,156.272 194.167,157.772 197.167,154.772 194.167,151.772 197.167,153.272 200.167,154.172 203.167,154.772 " fill="none" stroke="#000000" stroke-width="0.200000" />
<path d="M 61.5634 163.701 L 85.9155 163.701 " fill="none" stroke-width="0.2" stroke="#000000" />
<polyline points="85.9155,163.701 82.9154,164.301 79.9157,165.201 76.9155,166.701 79.9157,163.701 76.9155,160.701 79.9157,162.201 82.9154,163.101 85.9155,163.701 " fill="none" stroke="#000000" stroke-width="0.200000" />
<path d="M 177.913 163.701 L 203.167 163.701 " fill="none" stroke-width="0.2" stroke="#000000" />
<polyline points="203.167,163.701 200.167,164.301 197.167,165.201 194.167,166.701 197.167,163.701 194.167,160.701 197.167,162.201 200.167,163.101 203.167,163.701 " fill="none" stroke="#000000" stroke-width="0.200000" />
<path d="M 61.5634 172.63 L 85.9155 172.63 " fill="none" stroke-width="0.2" stroke="#000000" />
<polyline points="85.9155,172.63 82.9154,173.23 79.9157,174.13 76.9155,175.63 79.9157,172.63 76.9155,169.63 79.9157,171.13 82.9154,172.03 85.9155,172.63 " fill="none" stroke="#000000" stroke-width="0.200000" />
<path d="M 177.913 172.63 L 203.167 172.63 " fill="none" stroke-width="0.2" stroke="#000000" />
<polyline points="203.167,172.63 200.167,173.23 197.167,174.13 194.167,175.63 197.167,172.63 194.167,169.63 197.167,171.13 200.167,172.03 203.167,172.63 " fill="none" stroke="#000000" stroke-width="0.200000" />
<path d="M 61.5634 181.559 L 85.9155 181.559 " fill="none" stroke-width="0.2" stroke="#000000" />
<polyline points="85.9155,181.559 82.9154,182.159 79.9157,183.059 76.9155,184.559 79.9157,181.559 76.9155,178.559 79.9157,180.059 82.9154,180.959 85.9155,181.559 " fill="none" stroke="#000000" stroke-width="0.200000" />
<path d="M 177.913 181.559 L 203.167 181.559 " fill="none" stroke-width="0.2" stroke="#000000" />
<polyline points="203.167,181.559 200.167,182.159 197.167,183.059 194.167,184.559 197.167,181.559 194.167,178.559 197.167,180.059 200.167,180.959 203.167,181.559 " fill="none" stroke="#000000" stroke-width="0.200000" />
<path d="M 61.5634 190.488 L 85.9155 190.488 " fill="none" stroke-width="0.2" stroke="#000000" />
<polyline points="85.9155,190.488 82.9154,191.088 79.9157,191.988 76.9155,193.488 79.9157,190.488 76.9155,187.488 79.9157,188.988 82.9154,189.888 85.9155,190.488 " fill="none" stroke="#000000" stroke-width="0.200000" />
<path d="M 177.913 190.488 L 203.167 190.488 " fill="none" stroke-width="0.2" stroke="#000000" />
<polyline points="203.167,190.488 200.167,191.088 197.167,191.988 194.167,193.488 197.167,190.488 194.167,187.488 197.167,188.988 200.167,189.888 203.167,190.488 " fill="none" stroke="#000000" stroke-width="0.200000" />
<path d="M 61.5634 199.417 L 85.9155 199.417 " fill="none" stroke-width="0.2" stroke="#000000" />
<polyline points="85.9155,199.417 82.9154,200.017 79.9157,200.917 76.9155,202.417 79.9157,199.417 76.9155,196.417 79.9157,197.917 82.9154,198.817 85.9155,199.417 " fill="none" stroke="#000000" stroke-width="0.200000" />
<path d="M 177.913 199.417 L 203.167 199.417 " fill="none" stroke-width="0.2" stroke="#000000" />
<polyline points="203.167,199.417 200.167,200.017 197.167,200.917 194.167,202.417 197.167,199.417 194.167,196.417 197.167,197.917 200.167,198.817 203.167,199.417 " fill="none" stroke="#000000" stroke-width="0.200000" />
<path d="M 141.835 159.236 L 105.758 159.236 L 105.758 168.165 L 141.835 168.165 " fill="none" stroke-width="0.4" stroke="#000000" />
<path d="M 259.087 145.843 L 223.009 145.843 L 223.009 154.772 L 259.087 154.772 " fill="none" stroke-width="0.4" stroke="#000000" />
<path d="M 259.087 181.559 L 223.009 181.559 L 223.009 172.63 L 259.087 172.63 " fill="none" stroke-width="0.4" stroke="#000000" />
<text x="104.314961" y="-115.086614" transform="scale(1, -1)" text-anchor="start" fill="#000000" font-size="8.000000"><tspan font-family="'Times New Roman', Times, 'Liberation Serif', 'Nimbus Roman', serif" font-style="normal" font-weight="normal">a)</tspan></text>
<text x="221.385827" y="-119.055118" transform="scale(1, -1)" text-anchor="start" fill="#000000" font-size="8.000000"><tspan font-family="'Times New Roman', Times, 'Liberation Serif', 'Nimbus Roman', serif" font-style="normal" font-weight="normal">b)</tspan></text>
<text x="104.314961" y="-3.968504" transform="scale(1, -1)" text-anchor="start" fill="#000000" font-size="8.000000"><tspan font-family="'Times New Roman', Times, 'Liberation Serif', 'Nimbus Roman', serif" font-style="normal" font-weight="normal">c)</tspan></text>
<text x="221.385827" y="-3.968504" transform="scale(1, -1)" text-anchor="start" fill="#000000" font-size="8.000000"><tspan font-family="'Times New Roman', Times, 'Liberation Serif', 'Nimbus Roman', serif" font-style="normal" font-weight="normal">d)</tspan></text>
</g>
</svg>
