<?xml version="1.0" encoding="UTF-8" standalone="no"?>
<svg width="283.464567pt" height="283.464567pt" viewBox="0 -283.464567 283.464567 283.464567" xmlns="http://www.w3.org/2000/svg">
<rect x="0" y="-283.464567" width="283.464567" height="283.464567" fill="#ffffff"/>
<g transform="scale(1, -1)">
<text x="23.622047" y="-243.307087" transform="scale(1, -1)" text-anchor="start" fill="#000000" font-size="12.000000"><tspan font-family="'Times New Roman', Times, 'Liberation Serif', 'Nimbus Roman', serif" font-style="normal" font-weight="normal">Different ways to fill areas</tspan></text>
<text x="23.622047" y="-231.496063" transform="scale(1, -1)" text-anchor="start" fill="#000000" font-size="8.000000"><tspan font-family="'Times New Roman', Times, 'Liberation Serif', 'Nimbus Roman', serif" font-style="normal" font-weight="normal">To outline just add the parameter </tspan></text>
<text x="131.606047" y="-231.496063" transform="scale(1, -1)" text-anchor="start" fill="#000000" font-size="8.000000"><tspan font-family="'Times New Roman', Times, 'Liberation Serif', 'Nimbus Roman', serif" font-style="italic" font-weight="normal">color</tspan></text>
<text x="23.622047" y="-73.228346" transform="scale(1, -1)" text-anchor="start" fill="#000000" font-size="9.000000"><tspan font-family="'Times New Roman', Times, 'Liberation Serif', 'Nimbus Roman', serif" font-style="normal" font-weight="normal">For patterns: hatch, hatchback, crosshatch, hatch_gap, hatch_angle</tspan></text>
<defs><pattern id="mgpat_45000_4000_000000" patternUnits="userSpaceOnUse" width="4.000000" height="4.000000" patternTransform="rotate(45.000000)"><line x1="0" y1="0" x2="4.000000" y2="0" stroke="#000000" stroke-width="0.200000"/></pattern></defs>
<path d="M 23.622 42.5197 L 54.3307 42.5197 L 54.3307 66.1417 L 23.622 66.1417 Z " fill="url(#mgpat_45000_4000_000000)" stroke="none" />
<text x="23.622047" y="-29.527559" transform="scale(1, -1)" text-anchor="start" fill="#000000" font-size="6.000000"><tspan font-family="'Times New Roman', Times, 'Liberation Serif', 'Nimbus Roman', serif" font-style="normal" font-weight="normal">hatch</tspan></text>
<defs><pattern id="mgpat_135000_4000_000000" patternUnits="userSpaceOnUse" width="4.000000" height="4.000000" patternTransform="rotate(-45.000000)"><line x1="0" y1="0" x2="4.000000" y2="0" stroke="#000000" stroke-width="0.200000"/></pattern></defs>
<path d="M 82.6772 42.5197 L 113.386 42.5197 L 113.386 66.1417 L 82.6772 66.1417 Z " fill="url(#mgpat_135000_4000_000000)" stroke="none" />
<text x="82.677165" y="-29.527559" transform="scale(1, -1)" text-anchor="start" fill="#000000" font-size="6.000000"><tspan font-family="'Times New Roman', Times, 'Liberation Serif', 'Nimbus Roman', serif" font-style="normal" font-weight="normal">hatchback</tspan></text>
<defs><pattern id="mgpat_45000_4000_135000_4000_000000" patternUnits="userSpaceOnUse" width="5.656854" height="5.656854"><line x1="0" y1="0" x2="5.656854" y2="5.656854" stroke="#000000" stroke-width="0.200000"/><line x1="0" y1="5.656854" x2="5.656854" y2="0" stroke="#000000" stroke-width="0.200000"/></pattern></defs>
<path d="M 141.732 42.5197 L 172.441 42.5197 L 172.441 66.1417 L 141.732 66.1417 Z " fill="url(#mgpat_45000_4000_135000_4000_000000)" stroke="none" />
<text x="141.732283" y="-29.527559" transform="scale(1, -1)" text-anchor="start" fill="#000000" font-size="6.000000"><tspan font-family="'Times New Roman', Times, 'Liberation Serif', 'Nimbus Roman', serif" font-style="normal" font-weight="normal">crosshatch</tspan></text>
<defs><pattern id="mgpat_0_4000_90000_4000_000000" patternUnits="userSpaceOnUse" width="4.000000" height="4.000000" patternTransform="rotate(0.000000)"><line x1="0" y1="0" x2="4.000000" y2="0" stroke="#000000" stroke-width="0.200000"/><line x1="0" y1="0" x2="0" y2="4.000000" stroke="#000000" stroke-width="0.200000"/></pattern></defs>
<path d="M 200.787 42.5197 L 231.496 42.5197 L 231.496 66.1417 L 200.787 66.1417 Z " fill="url(#mgpat_0_4000_90000_4000_000000)" stroke="none" />
<text x="200.787402" y="-29.527559" transform="scale(1, -1)" text-anchor="start" fill="#000000" font-size="6.000000"><tspan font-family="'Times New Roman', Times, 'Liberation Serif', 'Nimbus Roman', serif" font-style="normal" font-weight="normal">hatch_angle=0</tspan></text>
<text x="23.622047" y="-144.094488" transform="scale(1, -1)" text-anchor="start" fill="#000000" font-size="9.000000"><tspan font-family="'Times New Roman', Times, 'Liberation Serif', 'Nimbus Roman', serif" font-style="normal" font-weight="normal">For grays use gray(0.0) to gray(1.0)</tspan></text>
<path d="M 23.622 113.386 L 47.2441 113.386 L 47.2441 137.008 L 23.622 137.008 Z " fill="#000000" stroke="none" />
<path d="M 47.2441 113.386 L 70.8661 113.386 L 70.8661 137.008 L 47.2441 137.008 Z " fill="#191919" stroke="none" />
<path d="M 70.8661 113.386 L 94.4882 113.386 L 94.4882 137.008 L 70.8661 137.008 Z " fill="#333333" stroke="none" />
<path d="M 94.4882 113.386 L 118.11 113.386 L 118.11 137.008 L 94.4882 137.008 Z " fill="#4C4C4C" stroke="none" />
<path d="M 118.11 113.386 L 141.732 113.386 L 141.732 137.008 L 118.11 137.008 Z " fill="#666666" stroke="none" />
<path d="M 141.732 113.386 L 165.354 113.386 L 165.354 137.008 L 141.732 137.008 Z " fill="#7F7F7F" stroke="none" />
<path d="M 165.354 113.386 L 188.976 113.386 L 188.976 137.008 L 165.354 137.008 Z " fill="#999999" stroke="none" />
<path d="M 188.976 113.386 L 212.598 113.386 L 212.598 137.008 L 188.976 137.008 Z " fill="#B2B2B2" stroke="none" />
<path d="M 212.598 113.386 L 236.22 113.386 L 236.22 137.008 L 212.598 137.008 Z " fill="#CCCCCC" stroke="none" />
<path d="M 236.22 113.386 L 259.843 113.386 L 259.843 137.008 L 236.22 137.008 Z " fill="#FFFFFF" stroke-width="0.2" stroke="#000000" />
<text x="23.622047" y="-214.960630" transform="scale(1, -1)" text-anchor="start" fill="#000000" font-size="9.000000"><tspan font-family="'Times New Roman', Times, 'Liberation Serif', 'Nimbus Roman', serif" font-style="normal" font-weight="normal">For colors use fill=</tspan></text>
<text x="92.445047" y="-214.960630" transform="scale(1, -1)" text-anchor="start" fill="#000000" font-size="9.000000"><tspan font-family="'Times New Roman', Times, 'Liberation Serif', 'Nimbus Roman', serif" font-style="italic" font-weight="normal">colorname</tspan></text>
<path d="M 23.622 184.252 L 47.2441 184.252 L 47.2441 207.874 L 23.622 207.874 Z " fill="#000000" stroke="none" />
<text x="23.622047" y="-172.440945" transform="scale(1, -1)" text-anchor="start" fill="#000000" font-size="6.000000"><tspan font-family="'Times New Roman', Times, 'Liberation Serif', 'Nimbus Roman', serif" font-style="normal" font-weight="normal">black</tspan></text>
<path d="M 47.2441 184.252 L 70.8661 184.252 L 70.8661 207.874 L 47.2441 207.874 Z " fill="#0000FF" stroke="none" />
<text x="47.244094" y="-172.440945" transform="scale(1, -1)" text-anchor="start" fill="#000000" font-size="6.000000"><tspan font-family="'Times New Roman', Times, 'Liberation Serif', 'Nimbus Roman', serif" font-style="normal" font-weight="normal">blue</tspan></text>
<path d="M 70.8661 184.252 L 94.4882 184.252 L 94.4882 207.874 L 70.8661 207.874 Z " fill="#A52A2A" stroke="none" />
<text x="70.866142" y="-172.440945" transform="scale(1, -1)" text-anchor="start" fill="#000000" font-size="6.000000"><tspan font-family="'Times New Roman', Times, 'Liberation Serif', 'Nimbus Roman', serif" font-style="normal" font-weight="normal">brown</tspan></text>
<path d="M 94.4882 184.252 L 118.11 184.252 L 118.11 207.874 L 94.4882 207.874 Z " fill="#00FFFF" stroke="none" />
<text x="94.488189" y="-172.440945" transform="scale(1, -1)" text-anchor="start" fill="#000000" font-size="6.000000"><tspan font-family="'Times New Roman', Times, 'Liberation Serif', 'Nimbus Roman', serif" font-style="normal" font-weight="normal">cyan</tspan></text>
<path d="M 118.11 184.252 L 141.732 184.252 L 141.732 207.874 L 118.11 207.874 Z " fill="#008000" stroke="none" />
<text x="118.110236" y="-172.440945" transform="scale(1, -1)" text-anchor="start" fill="#000000" font-size="6.000000"><tspan font-family="'Times New Roman', Times, 'Liberation Serif', 'Nimbus Roman', serif" font-style="normal" font-weight="normal">green</tspan></text>
<path d="M 141.732 184.252 L 165.354 184.252 L 165.354 207.874 L 141.732 207.874 Z " fill="#FF00FF" stroke="none" />
<text x="141.732283" y="-172.440945" transform="scale(1, -1)" text-anchor="start" fill="#000000" font-size="6.000000"><tspan font-family="'Times New Roman', Times, 'Liberation Serif', 'Nimbus Roman', serif" font-style="normal" font-weight="normal">magenta</tspan></text>
<path d="M 165.354 184.252 L 188.976 184.252 L 188.976 207.874 L 165.354 207.874 Z " fill="#FFA500" stroke="none" />
<text x="165.354331" y="-172.440945" transform="scale(1, -1)" text-anchor="start" fill="#000000" font-size="6.000000"><tspan font-family="'Times New Roman', Times, 'Liberation Serif', 'Nimbus Roman', serif" font-style="normal" font-weight="normal">orange</tspan></text>
<path d="M 188.976 184.252 L 212.598 184.252 L 212.598 207.874 L 188.976 207.874 Z " fill="#FF0000" stroke="none" />
<text x="188.976378" y="-172.440945" transform="scale(1, -1)" text-anchor="start" fill="#000000" font-size="6.000000"><tspan font-family="'Times New Roman', Times, 'Liberation Serif', 'Nimbus Roman', serif" font-style="normal" font-weight="normal">red</tspan></text>
<path d="M 212.598 184.252 L 236.22 184.252 L 236.22 207.874 L 212.598 207.874 Z " fill="#FFFFFF" stroke-width="0.2" stroke="#000000" />
<text x="212.598425" y="-172.440945" transform="scale(1, -1)" text-anchor="start" fill="#000000" font-size="6.000000"><tspan font-family="'Times New Roman', Times, 'Liberation Serif', 'Nimbus Roman', serif" font-style="normal" font-weight="normal">white</tspan></text>
<path d="M 236.22 184.252 L 259.843 184.252 L 259.843 207.874 L 236.22 207.874 Z " fill="#FFFF00" stroke="none" />
<text x="236.220472" y="-172.440945" transform="scale(1, -1)" text-anchor="start" fill="#000000" font-size="6.000000"><tspan font-family="'Times New Roman', Times, 'Liberation Serif', 'Nimbus Roman', serif" font-style="normal" font-weight="normal">yellow</tspan></text>
<text x="29.527559" y="-101.574803" transform="scale(1, -1)" text-anchor="start" fill="#000000" font-size="6.000000"><tspan font-family="'Times New Roman', Times, 'Liberation Serif', 'Nimbus Roman', serif" font-style="italic" font-weight="normal">0.1</tspan></text>
<text x="53.149606" y="-101.574803" transform="scale(1, -1)" text-anchor="start" fill="#000000" font-size="6.000000"><tspan font-family="'Times New Roman', Times, 'Liberation Serif', 'Nimbus Roman', serif" font-style="italic" font-weight="normal">0.2</tspan></text>
<text x="76.771654" y="-101.574803" transform="scale(1, -1)" text-anchor="start" fill="#000000" font-size="6.000000"><tspan font-family="'Times New Roman', Times, 'Liberation Serif', 'Nimbus Roman', serif" font-style="italic" font-weight="normal">0.3</tspan></text>
<text x="100.393701" y="-101.574803" transform="scale(1, -1)" text-anchor="start" fill="#000000" font-size="6.000000"><tspan font-family="'Times New Roman', Times, 'Liberation Serif', 'Nimbus Roman', serif" font-style="italic" font-weight="normal">0.4</tspan></text>
<text x="124.015748" y="-101.574803" transform="scale(1, -1)" text-anchor="start" fill="#000000" font-size="6.000000"><tspan font-family="'Times New Roman', Times, 'Liberation Serif', 'Nimbus Roman', serif" font-style="italic" font-weight="normal">0.5</tspan></text>
<text x="147.637795" y="-101.574803" transform="scale(1, -1)" text-anchor="start" fill="#000000" font-size="6.000000"><tspan font-family="'Times New Roman', Times, 'Liberation Serif', 'Nimbus Roman', serif" font-style="italic" font-weight="normal">0.6</tspan></text>
<text x="171.259843" y="-101.574803" transform="scale(1, -1)" text-anchor="start" fill="#000000" font-size="6.000000"><tspan font-family="'Times New Roman', Times, 'Liberation Serif', 'Nimbus Roman', serif" font-style="italic" font-weight="normal">0.7</tspan></text>
<text x="194.881890" y="-101.574803" transform="scale(1, -1)" text-anchor="start" fill="#000000" font-size="6.000000"><tspan font-family="'Times New Roman', Times, 'Liberation Serif', 'Nimbus Roman', serif" font-style="italic" font-weight="normal">0.8</tspan></text>
<text x="218.503937" y="-101.574803" transform="scale(1, -1)" text-anchor="start" fill="#000000" font-size="6.000000"><tspan font-family="'Times New Roman', Times, 'Liberation Serif', 'Nimbus Roman', serif" font-style="italic" font-weight="normal">0.9</tspan></text>
<text x="242.125984" y="-101.574803" transform="scale(1, -1)" text-anchor="start" fill="#000000" font-size="6.000000"><tspan font-family="'Times New Roman', Times, 'Liberation Serif', 'Nimbus Roman', serif" font-style="italic" font-weight="normal">1.0</tspan></text>
</g>
</svg>
