<?xml version="1.0" encoding="UTF-8" standalone="no"?>
<svg width="340.157480pt" height="340.157480pt" viewBox="0 -340.157480 340.157480 340.157480" xmlns="http://www.w3.org/2000/svg">
<rect x="0" y="-340.157480" width="340.157480" height="340.157480" fill="#ffffff"/>
<g transform="scale(1, -1)">
<text x="170.078740" y="-323.149606" transform="scale(1, -1)" text-anchor="middle" fill="#000000" font-size="10.000000"><tspan font-family="'Times New Roman', Times, 'Liberation Serif', 'Nimbus Roman', serif" font-style="normal" font-weight="bold">Marcadores estándar y orientación tangente</tspan></text>
<circle cx="34.015748" cy="283.464567" r="8.000000" fill="#000000" />
<polygon points="74.2047,275.465 90.2047,275.465 90.2047,291.465 74.2047,291.465 74.2047,275.465 " fill="#000000" />
<polygon points="130.394,275.465 138.394,283.465 130.394,291.465 122.394,283.465 130.394,275.465 " fill="#000000" />
<polyline points="170.583,283.465 186.583,283.465 " fill="none" stroke="#000000" stroke-width="1.000000" />
<polyline points="178.583,275.465 178.583,291.465 " fill="none" stroke="#000000" stroke-width="1.000000" />
<polyline points="218.772,275.465 234.772,291.465 " fill="none" stroke="#000000" stroke-width="1.000000" />
<polyline points="218.772,291.465 234.772,275.465 " fill="none" stroke="#000000" stroke-width="1.000000" />
<polygon points="266.961,277.865 282.961,283.465 266.961,289.065 266.961,277.865 " fill="#000000" />
<polyline points="323.15,283.465 317.816,284.531 312.483,286.131 307.15,288.798 312.483,283.465 307.15,278.131 312.483,280.798 317.816,282.398 323.15,283.465 " fill="none" stroke="#000000" stroke-width="1.000000" />
<polygon points="104.813,235.78 99.2126,251.78 93.6126,235.78 104.813,235.78 " fill="#000000" />
<polygon points="163.906,249.38 147.906,243.78 163.906,238.18 163.906,249.38 " fill="#000000" />
<polygon points="206.998,251.78 212.598,235.78 218.198,251.78 206.998,251.78 " fill="#000000" />
<polygon points="269.291,232.466 280.605,243.78 269.291,255.093 257.978,243.78 269.291,232.466 " fill="#000000" />
<path d="M 28.3465 170.079 L 85.0394 226.772 L 170.079 226.772 L 255.118 170.079 L 311.811 141.732 " fill="none" stroke-width="1" stroke="#0000FF" />
<polyline points="28.3465,170.079 22.6896,166.307 16.5618,163.008 9.49004,160.651 18.9186,160.651 18.9186,151.222 21.2754,158.294 24.5747,164.422 28.3465,170.079 " fill="none" stroke="#0000FF" stroke-width="1.000000" />
<polyline points="85.0394,226.772 78.3542,225.533 71.4221,224.915 63.9938,225.534 72.66,221.82 68.9459,213.154 73.8978,218.725 79.3443,223.058 85.0394,226.772 " fill="none" stroke="#0000FF" stroke-width="1.000000" />
<polyline points="170.079,226.772 164.175,230.145 158.484,234.15 153.213,239.421 157.43,230.988 148.997,226.771 156.376,227.826 163.332,227.615 170.079,226.772 " fill="none" stroke="#0000FF" stroke-width="1.000000" />
<polyline points="255.118,170.079 250.087,174.652 245.4,179.797 241.398,186.086 243.685,176.939 234.538,174.652 241.97,174.08 248.715,172.366 255.118,170.079 " fill="none" stroke="#0000FF" stroke-width="1.000000" />
<polyline points="311.811,141.732 306.444,145.906 301.376,150.676 296.904,156.64 299.886,147.695 290.941,144.713 298.395,144.714 305.252,143.522 311.811,141.732 " fill="none" stroke="#0000FF" stroke-width="1.000000" />
<path d="M 28.3465 70.8661 L 85.0394 104.882 L 141.732 82.2047 L 198.425 116.22 L 255.118 93.5433 L 311.811 110.551 " fill="none" stroke-width="1" stroke="#FF0000" />
<circle cx="28.346457" cy="70.866142" r="5.000000" fill="none" stroke="#000000" stroke-width="1.000000" />
<circle cx="85.039370" cy="104.881890" r="5.000000" fill="none" stroke="#000000" stroke-width="1.000000" />
<circle cx="141.732283" cy="82.204724" r="5.000000" fill="none" stroke="#000000" stroke-width="1.000000" />
<circle cx="198.425197" cy="116.220472" r="5.000000" fill="none" stroke="#000000" stroke-width="1.000000" />
<circle cx="255.118110" cy="93.543307" r="5.000000" fill="none" stroke="#000000" stroke-width="1.000000" />
<circle cx="311.811024" cy="110.551181" r="5.000000" fill="none" stroke="#000000" stroke-width="1.000000" />
<polyline points="28.3465,21.3465 35.3465,28.3465 28.3465,35.3465 21.3465,28.3465 28.3465,21.3465 " fill="none" stroke="#008000" stroke-width="1.000000" />
<polyline points="85.0394,38.3543 92.0394,45.3543 85.0394,52.3543 78.0394,45.3543 85.0394,38.3543 " fill="none" stroke="#008000" stroke-width="1.000000" />
<polyline points="141.732,15.6772 148.732,22.6772 141.732,29.6772 134.732,22.6772 141.732,15.6772 " fill="none" stroke="#008000" stroke-width="1.000000" />
<polyline points="198.425,41.189 205.425,48.189 198.425,55.189 191.425,48.189 198.425,41.189 " fill="none" stroke="#008000" stroke-width="1.000000" />
<polyline points="255.118,24.1811 262.118,31.1811 255.118,38.1811 248.118,31.1811 255.118,24.1811 " fill="none" stroke="#008000" stroke-width="1.000000" />
<polyline points="311.811,32.685 318.811,39.685 311.811,46.685 304.811,39.685 311.811,32.685 " fill="none" stroke="#008000" stroke-width="1.000000" />
</g>
</svg>
