<?xml version="1.0" encoding="UTF-8" standalone="no"?>
<svg width="368.503937pt" height="226.771654pt" viewBox="0 -226.771654 368.503937 226.771654" xmlns="http://www.w3.org/2000/svg">
<rect x="0" y="-226.771654" width="368.503937" height="226.771654" fill="#ffffff"/>
<g transform="scale(1, -1)">
<path d="M 48.189 196.535 A 304.785 304.785 0 0 0 320.315 29.0147 " fill="none" stroke-width="1" stroke="#808080" stroke-dasharray="4,2" />
<path d="M 48.189 196.535 L 63.3071 196.018 L 78.4252 194.467 L 93.5433 191.882 L 108.661 188.263 L 123.78 183.609 L 138.898 177.922 L 154.016 171.201 L 169.134 163.445 L 184.252 154.655 L 199.37 144.831 L 214.488 133.974 L 229.606 122.082 L 244.724 109.156 L 259.843 95.1957 L 274.961 80.2016 L 290.079 64.1734 L 305.197 47.1111 L 320.315 29.0147 " fill="none" stroke-width="1.4" stroke="#000000" />
<circle cx="48.188976" cy="196.535433" r="2.600000" fill="none" stroke="#0000FF" stroke-width="1.400000" />
<circle cx="320.314961" cy="29.014677" r="2.600000" fill="none" stroke="#0000FF" stroke-width="1.400000" />
</g>
</svg>
