<?xml version="1.0" encoding="UTF-8" standalone="no"?>
<svg width="311.811024pt" height="311.811024pt" viewBox="0 -311.811024 311.811024 311.811024" xmlns="http://www.w3.org/2000/svg">
<rect x="0" y="-311.811024" width="311.811024" height="311.811024" fill="#ffffff"/>
<g transform="scale(1, -1)">
<path d="M 162.992 170.079 L 162.992 184.252 " fill="none" stroke-width="12" stroke="#000000" />
<path d="M 170.079 155.906 L 170.079 170.079 " fill="none" stroke-width="0.1" stroke="#000000" />
<text x="155.905512" y="-155.905512" transform="scale(1, -1)" text-anchor="start" fill="#000000" font-size="15.000000"><tspan font-family="'Times New Roman', Times, 'Liberation Serif', 'Nimbus Roman', serif" font-style="normal" font-weight="normal">M</tspan></text>
<path d="M 14.1732 155.906 L 297.638 155.906 " fill="none" stroke-width="0.1" stroke="#000000" />
<path d="M 155.906 14.1732 L 155.906 290.551 " fill="none" stroke-width="0.1" stroke="#000000" />
<text x="155.905512" y="-297.637795" transform="scale(1, -1)" text-anchor="middle" fill="#000000" font-size="15.000000"><tspan font-family="'Times New Roman', Times, 'Liberation Serif', 'Nimbus Roman', serif" font-style="normal" font-weight="normal">Primitivos gráficos</tspan></text>
<text x="226.771654" y="-262.204724" transform="scale(1, -1)" text-anchor="middle" fill="#000000" font-size="10.000000"><tspan font-family="'Times New Roman', Times, 'Liberation Serif', 'Nimbus Roman', serif" font-style="normal" font-weight="normal">Círculo y arcos</tspan></text>
<path d="M 255.118 226.772 A 28.3465 28.3465 0 1 1 198.425 226.772 A 28.3465 28.3465 0 1 1 255.118 226.772 " fill="none" stroke-width="0.8" stroke="#000000" />
<path d="M 262.205 226.772 A 35.4331 35.4331 0 0 1 226.772 262.205 " fill="none" stroke-width="0.8" stroke="#000000" />
<path d="M 263.595 248.031 A 42.5197 42.5197 0 0 1 256.838 256.838 " fill="none" stroke-width="0.8" stroke="#000000" />
<path d="M 269.291 226.772 A 42.5197 42.5197 0 0 0 263.595 205.512 " fill="none" stroke-width="0.8" stroke="#000000" />
<text x="85.039370" y="-262.204724" transform="scale(1, -1)" text-anchor="middle" fill="#000000" font-size="10.000000"><tspan font-family="'Times New Roman', Times, 'Liberation Serif', 'Nimbus Roman', serif" font-style="normal" font-weight="normal">Elipse</tspan></text>
<path d="M 113.386 226.772 A 28.3465 14.1732 0 1 1 56.6929 226.772 A 28.3465 14.1732 0 1 1 113.386 226.772 " fill="none" stroke-width="0.8" stroke="#000000" />
<text x="226.771654" y="-127.559055" transform="scale(1, -1)" text-anchor="middle" fill="#000000" font-size="10.000000"><tspan font-family="'Times New Roman', Times, 'Liberation Serif', 'Nimbus Roman', serif" font-style="normal" font-weight="normal">Rectángulo</tspan></text>
<path d="M 226.772 120.472 L 262.205 120.472 L 262.205 70.8661 L 226.772 70.8661 Z " fill="none" stroke-width="0.8" stroke="#000000" />
<text x="85.039370" y="-127.559055" transform="scale(1, -1)" text-anchor="middle" fill="#000000" font-size="10.000000"><tspan font-family="'Times New Roman', Times, 'Liberation Serif', 'Nimbus Roman', serif" font-style="normal" font-weight="normal">Polígono</tspan></text>
<path d="M 127.559 85.0394 L 98.1787 125.478 L 50.6402 110.032 L 50.6402 60.0469 L 98.1787 44.6007 Z " fill="none" stroke-width="0.8" stroke="#000000" />
<defs><pattern id="mgpat_45000_4000_00FFFF" patternUnits="userSpaceOnUse" width="4.000000" height="4.000000" patternTransform="rotate(45.000000)"><line x1="0" y1="0" x2="4.000000" y2="0" stroke="#00FFFF" stroke-width="0.800000"/></pattern></defs>
<path d="M 99.2126 63.7795 L 69.8322 104.218 L 22.2938 88.772 L 22.2938 38.7871 L 69.8322 23.3409 Z " fill="url(#mgpat_45000_4000_00FFFF)" stroke-width="0.8" stroke="#008000" />
<path d="M 226.772 205.512 A 28.3465 28.3465 0 1 1 170.079 205.512 A 28.3465 28.3465 0 1 1 226.772 205.512 " fill="url(#mgpat_45000_4000_00FFFF)" stroke-width="0.8" stroke="#008000" />
<path d="M 85.0394 205.512 A 28.3465 14.1732 0 1 1 28.3465 205.512 A 28.3465 14.1732 0 1 1 85.0394 205.512 " fill="url(#mgpat_45000_4000_00FFFF)" stroke-width="0.8" stroke="#008000" />
<path d="M 198.425 99.2126 L 233.858 99.2126 L 233.858 49.6063 L 198.425 49.6063 Z " fill="url(#mgpat_45000_4000_00FFFF)" stroke-width="0.8" stroke="#008000" />
</g>
</svg>
