<?xml version="1.0" encoding="UTF-8" standalone="no"?>
<svg width="368.503937pt" height="198.425197pt" viewBox="0 -198.425197 368.503937 198.425197" xmlns="http://www.w3.org/2000/svg">
<rect x="0" y="-198.425197" width="368.503937" height="198.425197" fill="#ffffff"/>
<g transform="scale(1, -1)">
<path d="M 127.559 13.0819 L 127.559 170.079 " fill="none" stroke-width="0.3" stroke="#808080" stroke-dasharray="1,1" />
<path d="M 85.0394 165.718 L 340.157 165.718 " fill="none" stroke-width="0.3" stroke="#808080" stroke-dasharray="1,1" />
<path d="M 170.079 13.0819 L 170.079 170.079 " fill="none" stroke-width="0.3" stroke="#808080" stroke-dasharray="1,1" />
<path d="M 85.0394 152.635 L 340.157 152.635 " fill="none" stroke-width="0.3" stroke="#808080" stroke-dasharray="1,1" />
<path d="M 212.598 13.0819 L 212.598 170.079 " fill="none" stroke-width="0.3" stroke="#808080" stroke-dasharray="1,1" />
<path d="M 85.0394 130.83 L 340.157 130.83 " fill="none" stroke-width="0.3" stroke="#808080" stroke-dasharray="1,1" />
<path d="M 255.118 13.0819 L 255.118 170.079 " fill="none" stroke-width="0.3" stroke="#808080" stroke-dasharray="1,1" />
<path d="M 85.0394 100.303 L 340.157 100.303 " fill="none" stroke-width="0.3" stroke="#808080" stroke-dasharray="1,1" />
<path d="M 297.638 13.0819 L 297.638 170.079 " fill="none" stroke-width="0.3" stroke="#808080" stroke-dasharray="1,1" />
<path d="M 85.0394 61.0539 L 340.157 61.0539 " fill="none" stroke-width="0.3" stroke="#808080" stroke-dasharray="1,1" />
<path d="M 340.157 13.0819 L 340.157 170.079 " fill="none" stroke-width="0.3" stroke="#808080" stroke-dasharray="1,1" />
<path d="M 85.0394 13.083 L 340.157 13.083 " fill="none" stroke-width="0.3" stroke="#808080" stroke-dasharray="1,1" />
<path d="M 85.0394 13.0819 L 85.0394 170.079 L 340.157 170.079 " fill="none" stroke-width="0.5" stroke="#000000" />
<path d="M 28.3465 184.252 A 14.1732 14.1732 0 0 1 28.3465 155.906 M 28.3465 155.906 L 77.9528 161.575 L 77.9528 178.583 L 28.3465 184.252 " fill="#000000" stroke="none" />
<path d="M 60.0945 153.071 A 17.5748 17.5748 0 1 1 24.9449 153.071 A 17.5748 17.5748 0 1 1 60.0945 153.071 " fill="#5A3A1C" stroke-width="0.5" stroke="#000000" />
<path d="M 50.4567 153.071 A 7.93701 7.93701 0 1 1 34.5827 153.071 A 7.93701 7.93701 0 1 1 50.4567 153.071 " fill="#2A2A2A" stroke="none" />
<path d="M 7.08661 13.0819 L 77.9528 13.0819 L 77.9528 134.646 L 7.08661 134.646 Z " fill="#008000" stroke="none" />
<path d="M 85.0394 170.079 C 99.2126 168.625, 113.525 168.568, 127.559 165.718 C 141.877 162.81, 156.15 158.298, 170.079 152.635 C 184.515 146.765, 198.734 139.297, 212.598 130.83 C 227.11 121.968, 241.283 111.584, 255.118 100.303 C 269.665 88.4418, 283.809 75.1647, 297.638 61.0539 C 312.193 46.2021, 325.984 29.0733, 340.157 13.083 " fill="none" stroke-width="1.5" stroke="#000000" stroke-dasharray="4,2" />
<circle cx="85.039370" cy="170.078740" r="2.600000" fill="none" stroke="#00FF00" stroke-width="1.500000" />
<circle cx="127.559055" cy="165.717747" r="2.600000" fill="none" stroke="#00FF00" stroke-width="1.500000" />
<circle cx="170.078740" cy="152.634767" r="2.600000" fill="none" stroke="#00FF00" stroke-width="1.500000" />
<circle cx="212.598425" cy="130.829800" r="2.600000" fill="none" stroke="#00FF00" stroke-width="1.500000" />
<circle cx="255.118110" cy="100.302847" r="2.600000" fill="none" stroke="#00FF00" stroke-width="1.500000" />
<circle cx="297.637795" cy="61.053907" r="2.600000" fill="none" stroke="#00FF00" stroke-width="1.500000" />
<circle cx="340.157480" cy="13.082980" r="2.600000" fill="none" stroke="#00FF00" stroke-width="1.500000" />
<circle cx="85.039370" cy="170.078740" r="2.600000" fill="none" stroke="#FFA500" stroke-width="1.500000" />
<circle cx="85.039370" cy="165.717747" r="2.600000" fill="none" stroke="#FFA500" stroke-width="1.500000" />
<circle cx="85.039370" cy="152.634767" r="2.600000" fill="none" stroke="#FFA500" stroke-width="1.500000" />
<circle cx="85.039370" cy="130.829800" r="2.600000" fill="none" stroke="#FFA500" stroke-width="1.500000" />
<circle cx="85.039370" cy="100.302847" r="2.600000" fill="none" stroke="#FFA500" stroke-width="1.500000" />
<circle cx="85.039370" cy="61.053907" r="2.600000" fill="none" stroke="#FFA500" stroke-width="1.500000" />
<circle cx="85.039370" cy="13.082980" r="2.600000" fill="none" stroke="#FFA500" stroke-width="1.500000" />
<circle cx="85.039370" cy="170.078740" r="2.600000" fill="none" stroke="#0000FF" stroke-width="1.500000" />
<circle cx="127.559055" cy="170.078740" r="2.600000" fill="none" stroke="#0000FF" stroke-width="1.500000" />
<circle cx="170.078740" cy="170.078740" r="2.600000" fill="none" stroke="#0000FF" stroke-width="1.500000" />
<circle cx="212.598425" cy="170.078740" r="2.600000" fill="none" stroke="#0000FF" stroke-width="1.500000" />
<circle cx="255.118110" cy="170.078740" r="2.600000" fill="none" stroke="#0000FF" stroke-width="1.500000" />
<circle cx="297.637795" cy="170.078740" r="2.600000" fill="none" stroke="#0000FF" stroke-width="1.500000" />
<circle cx="340.157480" cy="170.078740" r="2.600000" fill="none" stroke="#0000FF" stroke-width="1.500000" />
</g>
</svg>
